<?xml version="1.0" encoding="UTF-8"?>
<!DOCTYPE svg PUBLIC "-//W3C//DTD SVG 1.1//EN" "http://www.w3.org/Graphics/SVG/1.1/DTD/svg11.dtd">
<svg xmlns="http://www.w3.org/2000/svg" xmlns:xlink="http://www.w3.org/1999/xlink" version="1.1" width="895px" height="827px" viewBox="-0.5 -0.5 895 827" content="" style="background-color: rgb(255, 255, 255);"><defs><style type="text/css">ul { margin-top: 0px; margin-bottom: 10px; }&#xa;ol { margin-top: 0px; margin-bottom: 10px; }&#xa;.h1, .h2, .h3, .h4, .h5, .h6, h1, h2, h3, h4, h5, h6 { margin-bottom: .5rem; font-weight: 500; line-height: 1.2; }&#xa;h1, h2, h3, h4, h5, h6 { margin-top: 0; margin-bottom: .5rem; }&#xa;.h1, h1 { font-size: 2.5rem; }&#xa;h2 { font-size: 1.5em; font-weight: bold; }&#xa;h3 { font-size: 1.17em; font-weight: bold; }&#xa;.h4, h4 { font-size: 1.5rem; }&#xa;.h5, h5 { font-size: 1.25rem; }&#xa;.h6, h6 { font-size: 1rem; }&#xa;p { margin-top: 0; margin-bottom: 1rem; }&#xa;ul { margin-top: 0px; margin-bottom: 10px; }&#xa;ol { margin-top: 0px; margin-bottom: 10px; }&#xa;.h1, .h2, .h3, .h4, .h5, .h6, h1, h2, h3, h4, h5, h6 { margin-bottom: .5rem; font-weight: 500; line-height: 1.2; }&#xa;h1, h2, h3, h4, h5, h6 { margin-top: 0; margin-bottom: .5rem; }&#xa;.h1, h1 { font-size: 2.5rem; }&#xa;h2 { font-size: 1.5em; font-weight: bold; }&#xa;h3 { font-size: 1.17em; font-weight: bold; }&#xa;.h4, h4 { font-size: 1.5rem; }&#xa;.h5, h5 { font-size: 1.25rem; }&#xa;.h6, h6 { font-size: 1rem; }&#xa;p { margin-top: 0; margin-bottom: 1rem; }&#xa;ul { margin-top: 0px; margin-bottom: 10px; }&#xa;ol { margin-top: 0px; margin-bottom: 10px; }&#xa;.h1, .h2, .h3, .h4, .h5, .h6, h1, h2, h3, h4, h5, h6 { margin-bottom: .5rem; font-weight: 500; line-height: 1.2; }&#xa;h1, h2, h3, h4, h5, h6 { margin-top: 0; margin-bottom: .5rem; }&#xa;.h1, h1 { font-size: 2.5rem; }&#xa;h2 { font-size: 1.5em; font-weight: bold; }&#xa;h3 { font-size: 1.17em; font-weight: bold; }&#xa;.h4, h4 { font-size: 1.5rem; }&#xa;.h5, h5 { font-size: 1.25rem; }&#xa;.h6, h6 { font-size: 1rem; }&#xa;p { margin-top: 0; margin-bottom: 1rem; }&#xa;</style></defs><g><rect x="0" y="0" width="178.8" height="20" fill="none" stroke="none" pointer-events="all"/><rect x="0" y="20" width="894" height="806" fill="none" stroke="none" pointer-events="all"/><path d="M 0 20 L 894 20 L 894 826 L 0 826 L 0 0 L 178.8 0 L 178.8 20" fill="none" stroke="#000000" stroke-miterlimit="10" pointer-events="all"/><g fill="#000000" font-family="Helvetica" font-weight="bold" text-anchor="middle" font-size="12px"><text x="446.5" y="32.5">GeoJSON UML Model</text></g><rect x="46" y="333" width="210" height="104.77" fill="none" stroke="#000000" pointer-events="all"/><path d="M 46 349.77 L 256 349.77" fill="none" stroke="#000000" stroke-miterlimit="10" pointer-events="all"/><path d="M 46 386.77 L 256 386.77" fill="none" stroke="#000000" stroke-miterlimit="10" pointer-events="all"/><g fill="#000000" font-family="Helvetica" font-weight="bold" text-anchor="middle" font-size="12px"><text x="150.5" y="344.5">GeoJSONFeatureCollection</text></g><rect x="46" y="352.77" width="210" height="16" fill="none" stroke="none" pointer-events="all"/><g fill="#000000" font-family="Helvetica" font-size="12px"><text x="52.5" y="365.27">+type = FeatureCollection</text></g><rect x="46" y="368.77" width="210" height="16" fill="none" stroke="none" pointer-events="all"/><g fill="#000000" font-family="Helvetica" font-size="12px"><text x="52.5" y="381.27">+features: &lt;GeoJSONFeature&gt;[]</text></g><rect x="46" y="386.77" width="210" height="16" fill="none" stroke="none" pointer-events="all"/><g fill="#000000" font-family="Helvetica" font-size="12px"><text x="52.5" y="399.27">fromMap(Map data)</text></g><rect x="46" y="402.77" width="210" height="16" fill="none" stroke="none" pointer-events="all"/><g fill="#000000" font-family="Helvetica" font-size="12px"><text x="52.5" y="415.27">fromJSON(String data)</text></g><rect x="46" y="418.77" width="210" height="16" fill="none" stroke="none" pointer-events="all"/><g fill="#000000" font-family="Helvetica" font-size="12px"><text x="52.5" y="431.27">Map&lt;String, dynamic&gt; toMap()</text></g><rect x="46" y="543.23" width="210" height="124.77" fill="none" stroke="#000000" pointer-events="all"/><path d="M 46 560 L 256 560" fill="none" stroke="#000000" stroke-miterlimit="10" pointer-events="all"/><path d="M 46 613 L 256 613" fill="none" stroke="#000000" stroke-miterlimit="10" pointer-events="all"/><g fill="#000000" font-family="Helvetica" font-weight="bold" text-anchor="middle" font-size="12px"><text x="150.5" y="554.73">GeoJSONFeature</text></g><rect x="46" y="563" width="210" height="16" fill="none" stroke="none" pointer-events="all"/><g fill="#000000" font-family="Helvetica" font-size="12px"><text x="52.5" y="575.5">+type = Feature</text></g><rect x="46" y="579" width="210" height="16" fill="none" stroke="none" pointer-events="all"/><g fill="#000000" font-family="Helvetica" font-size="12px"><text x="52.5" y="591.5">+geometry: GeoJSONGeometry</text></g><rect x="46" y="595" width="210" height="16" fill="none" stroke="none" pointer-events="all"/><g fill="#000000" font-family="Helvetica" font-size="12px"><text x="52.5" y="607.5">+properties: Map&lt;String, dynamic&gt;{}</text></g><rect x="46" y="613" width="210" height="16" fill="none" stroke="none" pointer-events="all"/><g fill="#000000" font-family="Helvetica" font-size="12px"><text x="52.5" y="625.5">fromMap(Map data)</text></g><rect x="46" y="629" width="210" height="16" fill="none" stroke="none" pointer-events="all"/><g fill="#000000" font-family="Helvetica" font-size="12px"><text x="52.5" y="641.5">fromJSON(String data)</text></g><rect x="46" y="645" width="210" height="16" fill="none" stroke="none" pointer-events="all"/><g fill="#000000" font-family="Helvetica" font-size="12px"><text x="52.5" y="657.5">Map&lt;String, dynamic&gt; toMap()</text></g><path d="M 151 451.47 L 151 543" fill="none" stroke="#000000" stroke-miterlimit="10" pointer-events="stroke"/><path d="M 151 438.47 L 157.5 444.97 L 151 451.47 L 144.5 444.97 Z" fill="none" stroke="#000000" stroke-miterlimit="10" pointer-events="all"/><rect x="325" y="333" width="210" height="88.77" fill="none" stroke="#000000" pointer-events="all"/><path d="M 325 349.77 L 535 349.77" fill="none" stroke="#000000" stroke-miterlimit="10" pointer-events="all"/><path d="M 325 370.77 L 535 370.77" fill="none" stroke="#000000" stroke-miterlimit="10" pointer-events="all"/><g fill="#000000" font-family="Helvetica" font-weight="bold" text-anchor="middle" font-size="12px"><text x="429.5" y="344.5">GeoJSONGeometry</text></g><rect x="325" y="352.77" width="210" height="16" fill="none" stroke="none" pointer-events="all"/><g fill="#000000" font-family="Helvetica" font-size="12px"><text x="331.5" y="365.27">+type: GeoJSONType</text></g><rect x="325" y="370.77" width="210" height="16" fill="none" stroke="none" pointer-events="all"/><g fill="#000000" font-family="Helvetica" font-size="12px"><text x="331.5" y="383.27">fromMap(Map data)</text></g><rect x="325" y="386.77" width="210" height="16" fill="none" stroke="none" pointer-events="all"/><g fill="#000000" font-family="Helvetica" font-size="12px"><text x="331.5" y="399.27">fromJSON(String data)</text></g><rect x="325" y="402.77" width="210" height="16" fill="none" stroke="none" pointer-events="all"/><g fill="#000000" font-family="Helvetica" font-size="12px"><text x="331.5" y="415.27">Map&lt;String, dynamic&gt; toMap()</text></g><path d="M 269.71 605.6 L 368 605.6 Q 378 605.6 378 595.6 L 378 422" fill="none" stroke="#000000" stroke-miterlimit="10" pointer-events="stroke"/><path d="M 256.71 605.6 L 263.21 599.1 L 269.71 605.6 L 263.21 612.1 Z" fill="#000000" stroke="#000000" stroke-miterlimit="10" pointer-events="all"/><rect x="607" y="50" width="240" height="104.77" fill="none" stroke="#000000" transform="translate(0,102.38)scale(1,-1)translate(0,-102.38)" pointer-events="all"/><path d="M 607 66.77 L 847 66.77" fill="none" stroke="#000000" stroke-miterlimit="10" transform="translate(0,102.38)scale(1,-1)translate(0,-102.38)" pointer-events="all"/><path d="M 607 103.77 L 847 103.77" fill="none" stroke="#000000" stroke-miterlimit="10" transform="translate(0,102.38)scale(1,-1)translate(0,-102.38)" pointer-events="all"/><g fill="#000000" font-family="Helvetica" font-weight="bold" text-anchor="middle" font-size="12px"><text x="726.5" y="61.5">GeoJSONPoint</text></g><rect x="607" y="69.77" width="240" height="16" fill="none" stroke="none" pointer-events="all"/><g fill="#000000" font-family="Helvetica" font-size="12px"><text x="613.5" y="82.27">+type = Point</text></g><rect x="607" y="85.77" width="240" height="16" fill="none" stroke="none" pointer-events="all"/><g fill="#000000" font-family="Helvetica" font-size="12px"><text x="613.5" y="98.27">+coordinates: &lt;double&gt;[]</text></g><rect x="607" y="103.77" width="240" height="16" fill="none" stroke="none" pointer-events="all"/><g fill="#000000" font-family="Helvetica" font-size="12px"><text x="613.5" y="116.27">fromMap(Map data)</text></g><rect x="607" y="119.77" width="240" height="16" fill="none" stroke="none" pointer-events="all"/><g fill="#000000" font-family="Helvetica" font-size="12px"><text x="613.5" y="132.27">fromJSON(String data)</text></g><rect x="607" y="135.77" width="240" height="16" fill="none" stroke="none" pointer-events="all"/><g fill="#000000" font-family="Helvetica" font-size="12px"><text x="613.5" y="148.27">Map&lt;String, dynamic&gt; toMap()</text></g><rect x="607" y="382.5" width="240" height="104.77" fill="none" stroke="#000000" transform="translate(0,434.88)scale(1,-1)translate(0,-434.88)" pointer-events="all"/><path d="M 607 399.27 L 847 399.27" fill="none" stroke="#000000" stroke-miterlimit="10" transform="translate(0,434.88)scale(1,-1)translate(0,-434.88)" pointer-events="all"/><path d="M 607 436.27 L 847 436.27" fill="none" stroke="#000000" stroke-miterlimit="10" transform="translate(0,434.88)scale(1,-1)translate(0,-434.88)" pointer-events="all"/><g fill="#000000" font-family="Helvetica" font-weight="bold" text-anchor="middle" font-size="12px"><text x="726.5" y="394">GeoJSONMultiLineString</text></g><rect x="607" y="402.27" width="240" height="16" fill="none" stroke="none" pointer-events="all"/><g fill="#000000" font-family="Helvetica" font-size="12px"><text x="613.5" y="414.77">+type = MultiLineString</text></g><rect x="607" y="418.27" width="240" height="16" fill="none" stroke="none" pointer-events="all"/><g fill="#000000" font-family="Helvetica" font-size="12px"><text x="613.5" y="430.77">+coordinates: &lt;List&lt;List&lt;double&gt;&gt;&gt;[]</text></g><rect x="607" y="436.27" width="240" height="16" fill="none" stroke="none" pointer-events="all"/><g fill="#000000" font-family="Helvetica" font-size="12px"><text x="613.5" y="448.77">fromMap(Map data)</text></g><rect x="607" y="452.27" width="240" height="16" fill="none" stroke="none" pointer-events="all"/><g fill="#000000" font-family="Helvetica" font-size="12px"><text x="613.5" y="464.77">fromJSON(String data)</text></g><rect x="607" y="468.27" width="240" height="16" fill="none" stroke="none" pointer-events="all"/><g fill="#000000" font-family="Helvetica" font-size="12px"><text x="613.5" y="480.77">Map&lt;String, dynamic&gt; toMap()</text></g><rect x="607" y="160.83" width="240" height="104.77" fill="none" stroke="#000000" transform="translate(0,213.22)scale(1,-1)translate(0,-213.22)" pointer-events="all"/><path d="M 607 177.59 L 847 177.59" fill="none" stroke="#000000" stroke-miterlimit="10" transform="translate(0,213.22)scale(1,-1)translate(0,-213.22)" pointer-events="all"/><path d="M 607 214.59 L 847 214.59" fill="none" stroke="#000000" stroke-miterlimit="10" transform="translate(0,213.22)scale(1,-1)translate(0,-213.22)" pointer-events="all"/><g fill="#000000" font-family="Helvetica" font-weight="bold" text-anchor="middle" font-size="12px"><text x="726.5" y="172.33">GeoJSONMultiPoint</text></g><rect x="607" y="180.59" width="240" height="16" fill="none" stroke="none" pointer-events="all"/><g fill="#000000" font-family="Helvetica" font-size="12px"><text x="613.5" y="193.09">+type = MultiPoint</text></g><rect x="607" y="196.59" width="240" height="16" fill="none" stroke="none" pointer-events="all"/><g fill="#000000" font-family="Helvetica" font-size="12px"><text x="613.5" y="209.09">+coordinates: &lt;List&lt;double&gt;&gt;[]</text></g><rect x="607" y="214.59" width="240" height="16" fill="none" stroke="none" pointer-events="all"/><g fill="#000000" font-family="Helvetica" font-size="12px"><text x="613.5" y="227.09">fromMap(Map data)</text></g><rect x="607" y="230.59" width="240" height="16" fill="none" stroke="none" pointer-events="all"/><g fill="#000000" font-family="Helvetica" font-size="12px"><text x="613.5" y="243.09">fromJSON(String data)</text></g><rect x="607" y="246.59" width="240" height="16" fill="none" stroke="none" pointer-events="all"/><g fill="#000000" font-family="Helvetica" font-size="12px"><text x="613.5" y="259.09">Map&lt;String, dynamic&gt; toMap()</text></g><rect x="607" y="271.67" width="240" height="104.77" fill="none" stroke="#000000" transform="translate(0,324.05)scale(1,-1)translate(0,-324.05)" pointer-events="all"/><path d="M 607 288.44 L 847 288.44" fill="none" stroke="#000000" stroke-miterlimit="10" transform="translate(0,324.05)scale(1,-1)translate(0,-324.05)" pointer-events="all"/><path d="M 607 325.44 L 847 325.44" fill="none" stroke="#000000" stroke-miterlimit="10" transform="translate(0,324.05)scale(1,-1)translate(0,-324.05)" pointer-events="all"/><g fill="#000000" font-family="Helvetica" font-weight="bold" text-anchor="middle" font-size="12px"><text x="726.5" y="283.17">GeoJSONLineString</text></g><rect x="607" y="291.44" width="240" height="16" fill="none" stroke="none" pointer-events="all"/><g fill="#000000" font-family="Helvetica" font-size="12px"><text x="613.5" y="303.94">+type = LineString</text></g><rect x="607" y="307.44" width="240" height="16" fill="none" stroke="none" pointer-events="all"/><g fill="#000000" font-family="Helvetica" font-size="12px"><text x="613.5" y="319.94">+coordinates: &lt;List&lt;double&gt;&gt;[]</text></g><rect x="607" y="325.44" width="240" height="16" fill="none" stroke="none" pointer-events="all"/><g fill="#000000" font-family="Helvetica" font-size="12px"><text x="613.5" y="337.94">fromMap(Map data)</text></g><rect x="607" y="341.44" width="240" height="16" fill="none" stroke="none" pointer-events="all"/><g fill="#000000" font-family="Helvetica" font-size="12px"><text x="613.5" y="353.94">fromJSON(String data)</text></g><rect x="607" y="357.44" width="240" height="16" fill="none" stroke="none" pointer-events="all"/><g fill="#000000" font-family="Helvetica" font-size="12px"><text x="613.5" y="369.94">Map&lt;String, dynamic&gt; toMap()</text></g><rect x="607" y="604.17" width="240" height="104.77" fill="none" stroke="#000000" transform="translate(0,656.55)scale(1,-1)translate(0,-656.55)" pointer-events="all"/><path d="M 607 620.94 L 847 620.94" fill="none" stroke="#000000" stroke-miterlimit="10" transform="translate(0,656.55)scale(1,-1)translate(0,-656.55)" pointer-events="all"/><path d="M 607 657.94 L 847 657.94" fill="none" stroke="#000000" stroke-miterlimit="10" transform="translate(0,656.55)scale(1,-1)translate(0,-656.55)" pointer-events="all"/><g fill="#000000" font-family="Helvetica" font-weight="bold" text-anchor="middle" font-size="12px"><text x="726.5" y="615.67">GeoJSONMultiPolygon</text></g><rect x="607" y="623.94" width="240" height="16" fill="none" stroke="none" pointer-events="all"/><g fill="#000000" font-family="Helvetica" font-size="12px"><text x="613.5" y="636.44">+type = MultiPolygon</text></g><rect x="607" y="639.94" width="240" height="16" fill="none" stroke="none" pointer-events="all"/><g fill="#000000" font-family="Helvetica" font-size="12px"><text x="613.5" y="652.44">+coordinates: &lt;List&lt;List&lt;List&lt;double&gt;&gt;&gt;&gt;[]</text></g><rect x="607" y="657.94" width="240" height="16" fill="none" stroke="none" pointer-events="all"/><g fill="#000000" font-family="Helvetica" font-size="12px"><text x="613.5" y="670.44">fromMap(Map data)</text></g><rect x="607" y="673.94" width="240" height="16" fill="none" stroke="none" pointer-events="all"/><g fill="#000000" font-family="Helvetica" font-size="12px"><text x="613.5" y="686.44">fromJSON(String data)</text></g><rect x="607" y="689.94" width="240" height="16" fill="none" stroke="none" pointer-events="all"/><g fill="#000000" font-family="Helvetica" font-size="12px"><text x="613.5" y="702.44">Map&lt;String, dynamic&gt; toMap()</text></g><rect x="607" y="493.33" width="240" height="104.77" fill="none" stroke="#000000" transform="translate(0,545.72)scale(1,-1)translate(0,-545.72)" pointer-events="all"/><path d="M 607 510.09 L 847 510.09" fill="none" stroke="#000000" stroke-miterlimit="10" transform="translate(0,545.72)scale(1,-1)translate(0,-545.72)" pointer-events="all"/><path d="M 607 547.09 L 847 547.09" fill="none" stroke="#000000" stroke-miterlimit="10" transform="translate(0,545.72)scale(1,-1)translate(0,-545.72)" pointer-events="all"/><g fill="#000000" font-family="Helvetica" font-weight="bold" text-anchor="middle" font-size="12px"><text x="726.5" y="504.83">GeoJSONPolygon</text></g><rect x="607" y="513.09" width="240" height="16" fill="none" stroke="none" pointer-events="all"/><g fill="#000000" font-family="Helvetica" font-size="12px"><text x="613.5" y="525.59">+type = Polygon</text></g><rect x="607" y="529.09" width="240" height="16" fill="none" stroke="none" pointer-events="all"/><g fill="#000000" font-family="Helvetica" font-size="12px"><text x="613.5" y="541.59">+coordinates: &lt;List&lt;List&lt;double&gt;&gt;&gt;[]</text></g><rect x="607" y="547.09" width="240" height="16" fill="none" stroke="none" pointer-events="all"/><g fill="#000000" font-family="Helvetica" font-size="12px"><text x="613.5" y="559.59">fromMap(Map data)</text></g><rect x="607" y="563.09" width="240" height="16" fill="none" stroke="none" pointer-events="all"/><g fill="#000000" font-family="Helvetica" font-size="12px"><text x="613.5" y="575.59">fromJSON(String data)</text></g><rect x="607" y="579.09" width="240" height="16" fill="none" stroke="none" pointer-events="all"/><g fill="#000000" font-family="Helvetica" font-size="12px"><text x="613.5" y="591.59">Map&lt;String, dynamic&gt; toMap()</text></g><rect x="607" y="715" width="240" height="104.77" fill="none" stroke="#000000" transform="translate(0,767.38)scale(1,-1)translate(0,-767.38)" pointer-events="all"/><path d="M 607 731.77 L 847 731.77" fill="none" stroke="#000000" stroke-miterlimit="10" transform="translate(0,767.38)scale(1,-1)translate(0,-767.38)" pointer-events="all"/><path d="M 607 768.77 L 847 768.77" fill="none" stroke="#000000" stroke-miterlimit="10" transform="translate(0,767.38)scale(1,-1)translate(0,-767.38)" pointer-events="all"/><g fill="#000000" font-family="Helvetica" font-weight="bold" text-anchor="middle" font-size="12px"><text x="726.5" y="726.5">GeoJSONGeometryCollection</text></g><rect x="607" y="734.77" width="240" height="16" fill="none" stroke="none" pointer-events="all"/><g fill="#000000" font-family="Helvetica" font-size="12px"><text x="613.5" y="747.27">+type = GeometryCollection</text></g><rect x="607" y="750.77" width="240" height="16" fill="none" stroke="none" pointer-events="all"/><g fill="#000000" font-family="Helvetica" font-size="12px"><text x="613.5" y="763.27">+geometries: &lt;GeoJSONGeometry&gt;[]</text></g><rect x="607" y="768.77" width="240" height="16" fill="none" stroke="none" pointer-events="all"/><g fill="#000000" font-family="Helvetica" font-size="12px"><text x="613.5" y="781.27">fromMap(Map data)</text></g><rect x="607" y="784.77" width="240" height="16" fill="none" stroke="none" pointer-events="all"/><g fill="#000000" font-family="Helvetica" font-size="12px"><text x="613.5" y="797.27">fromJSON(String data)</text></g><rect x="607" y="800.77" width="240" height="16" fill="none" stroke="none" pointer-events="all"/><g fill="#000000" font-family="Helvetica" font-size="12px"><text x="613.5" y="813.27">Map&lt;String, dynamic&gt; toMap()</text></g><path d="M 548.12 377 L 561 377 Q 571 377 571 367 L 571 112 Q 571 102 581 102 L 607 102" fill="none" stroke="#000000" stroke-miterlimit="10" pointer-events="stroke"/><path d="M 536.12 377 L 548.12 371 L 548.12 383 Z" fill="none" stroke="#000000" stroke-miterlimit="10" pointer-events="all"/><rect x="46" y="48" width="210" height="182.77" fill="none" stroke="#000000" pointer-events="all"/><path d="M 46 78.77 L 256 78.77" fill="none" stroke="#000000" stroke-miterlimit="10" pointer-events="all"/><g fill="#000000" font-family="Helvetica" font-weight="bold" text-anchor="middle" font-size="12px"><text x="150.5" y="59.5">&lt;&lt;enumeration&gt;&gt;</text><text x="150.5" y="73.5">GeoJSONType</text></g><rect x="46" y="81.77" width="210" height="16" fill="none" stroke="none" pointer-events="all"/><g fill="#000000" font-family="Helvetica" font-size="12px"><text x="52.5" y="94.27">FeatureCollection</text></g><rect x="46" y="97.77" width="210" height="16" fill="none" stroke="none" pointer-events="all"/><g fill="#000000" font-family="Helvetica" font-size="12px"><text x="52.5" y="110.27">Feature</text></g><rect x="46" y="113.77" width="210" height="16" fill="none" stroke="none" pointer-events="all"/><g fill="#000000" font-family="Helvetica" font-size="12px"><text x="52.5" y="126.27">Point</text></g><rect x="46" y="129.77" width="210" height="16" fill="none" stroke="none" pointer-events="all"/><g fill="#000000" font-family="Helvetica" font-size="12px"><text x="52.5" y="142.27">MultiPoint</text></g><rect x="46" y="145.77" width="210" height="16" fill="none" stroke="none" pointer-events="all"/><g fill="#000000" font-family="Helvetica" font-size="12px"><text x="52.5" y="158.27">LineString</text></g><rect x="46" y="161.77" width="210" height="16" fill="none" stroke="none" pointer-events="all"/><g fill="#000000" font-family="Helvetica" font-size="12px"><text x="52.5" y="174.27">MultiLineString</text></g><rect x="46" y="177.77" width="210" height="16" fill="none" stroke="none" pointer-events="all"/><g fill="#000000" font-family="Helvetica" font-size="12px"><text x="52.5" y="190.27">Polygon</text></g><rect x="46" y="193.77" width="210" height="16" fill="none" stroke="none" pointer-events="all"/><g fill="#000000" font-family="Helvetica" font-size="12px"><text x="52.5" y="206.27">MultiPolygon</text></g><rect x="46" y="209.77" width="210" height="16" fill="none" stroke="none" pointer-events="all"/><g fill="#000000" font-family="Helvetica" font-size="12px"><text x="52.5" y="222.27">GeometryCollection</text></g><path d="M 548.12 377.4 L 561 377.4 Q 571 377.4 571 367.4 L 571 249 Q 571 239 581 239 L 607 239" fill="none" stroke="#000000" stroke-miterlimit="10" pointer-events="stroke"/><path d="M 536.12 377.4 L 548.12 371.4 L 548.12 383.4 Z" fill="none" stroke="#000000" stroke-miterlimit="10" pointer-events="all"/><path d="M 548.12 377.4 L 561 377.4 Q 571 377.4 571 367.4 L 571 358.7 Q 571 350 581 350 L 607 350" fill="none" stroke="#000000" stroke-miterlimit="10" pointer-events="stroke"/><path d="M 536.12 377.4 L 548.12 371.4 L 548.12 383.4 Z" fill="none" stroke="#000000" stroke-miterlimit="10" pointer-events="all"/><path d="M 548.12 377.4 L 561 377.4 Q 571 377.4 571 387.4 L 571 562 Q 571 572 581 572 L 607 572" fill="none" stroke="#000000" stroke-miterlimit="10" pointer-events="stroke"/><path d="M 536.12 377.4 L 548.12 371.4 L 548.12 383.4 Z" fill="none" stroke="#000000" stroke-miterlimit="10" pointer-events="all"/><path d="M 548.12 377.4 L 561 377.4 Q 571 377.4 571 387.4 L 571 673 Q 571 683 581 683 L 607 683" fill="none" stroke="#000000" stroke-miterlimit="10" pointer-events="stroke"/><path d="M 536.12 377.4 L 548.12 371.4 L 548.12 383.4 Z" fill="none" stroke="#000000" stroke-miterlimit="10" pointer-events="all"/><path d="M 593.29 767 L 493 767 Q 483 767 483 757 L 483 422" fill="none" stroke="#000000" stroke-miterlimit="10" pointer-events="stroke"/><path d="M 606.29 767 L 599.79 773.5 L 593.29 767 L 599.79 760.5 Z" fill="none" stroke="#000000" stroke-miterlimit="10" pointer-events="all"/><path d="M 548.12 377.4 L 561 377.4 Q 571 377.4 571 387.4 L 571 451 Q 571 461 581 461 L 607 461" fill="none" stroke="#000000" stroke-miterlimit="10" pointer-events="stroke"/><path d="M 536.12 377.4 L 548.12 371.4 L 548.12 383.4 Z" fill="none" stroke="#000000" stroke-miterlimit="10" pointer-events="all"/><path d="M 548.12 377.4 L 561 377.4 Q 571 377.4 571 387.4 L 571 784 Q 571 794 581 794 L 607 794" fill="none" stroke="#000000" stroke-miterlimit="10" pointer-events="stroke"/><path d="M 536.12 377.4 L 548.12 371.4 L 548.12 383.4 Z" fill="none" stroke="#000000" stroke-miterlimit="10" pointer-events="all"/><rect x="325" y="50" width="210" height="88.77" fill="none" stroke="#000000" pointer-events="all"/><path d="M 325 66.77 L 535 66.77" fill="none" stroke="#000000" stroke-miterlimit="10" pointer-events="all"/><path d="M 325 87.77 L 535 87.77" fill="none" stroke="#000000" stroke-miterlimit="10" pointer-events="all"/><g fill="#000000" font-family="Helvetica" font-weight="bold" text-anchor="middle" font-size="12px"><text x="429.5" y="61.5">GeoJSON</text></g><rect x="325" y="69.77" width="210" height="16" fill="none" stroke="none" pointer-events="all"/><g fill="#000000" font-family="Helvetica" font-size="12px"><text x="331.5" y="82.27">+type: GeoJSONType</text></g><rect x="325" y="87.77" width="210" height="16" fill="none" stroke="none" pointer-events="all"/><g fill="#000000" font-family="Helvetica" font-size="12px"><text x="331.5" y="100.27">fromMap(Map data)</text></g><rect x="325" y="103.77" width="210" height="16" fill="none" stroke="none" pointer-events="all"/><g fill="#000000" font-family="Helvetica" font-size="12px"><text x="331.5" y="116.27">fromJSON(String data)</text></g><rect x="325" y="119.77" width="210" height="16" fill="none" stroke="none" pointer-events="all"/><g fill="#000000" font-family="Helvetica" font-size="12px"><text x="331.5" y="132.27">Map&lt;String, dynamic&gt; toMap()</text></g><path d="M 378 152.12 L 378 261 Q 378 271 368 271 L 161 271 Q 151 271 151 281 L 151 333" fill="none" stroke="#000000" stroke-miterlimit="10" pointer-events="stroke"/><path d="M 378 140.12 L 384 152.12 L 372 152.12 Z" fill="none" stroke="#000000" stroke-miterlimit="10" pointer-events="all"/><path d="M 430 152.12 L 430 294 Q 430 304 420 304 L 301 304 Q 291 304 291 314 L 291 474 Q 291 484 281 484 L 214 484 Q 204 484 204 494 L 204 543" fill="none" stroke="#000000" stroke-miterlimit="10" pointer-events="stroke"/><path d="M 430 140.12 L 436 152.12 L 424 152.12 Z" fill="none" stroke="#000000" stroke-miterlimit="10" pointer-events="all"/><path d="M 325 94 L 258.24 94" fill="none" stroke="#000000" stroke-miterlimit="10" stroke-dasharray="5" pointer-events="stroke"/><path d="M 269.12 88 L 257.12 94 L 269.12 100" fill="none" stroke="#000000" stroke-miterlimit="10" pointer-events="all"/><path d="M 483 152.12 L 483 285 Q 483 295 483 305 L 483 333" fill="none" stroke="#000000" stroke-miterlimit="10" pointer-events="stroke"/><path d="M 483 140.12 L 489 152.12 L 477 152.12 Z" fill="none" stroke="#000000" stroke-miterlimit="10" pointer-events="all"/><path d="M 151 451.47 L 151 543" fill="none" stroke="#000000" stroke-miterlimit="10" pointer-events="stroke"/><path d="M 151 438.47 L 157.5 444.97 L 151 451.47 L 144.5 444.97 Z" fill="none" stroke="#000000" stroke-miterlimit="10" pointer-events="all"/><path d="M 269.71 605.6 L 368 605.6 Q 378 605.6 378 595.6 L 378 422" fill="none" stroke="#000000" stroke-miterlimit="10" pointer-events="stroke"/><path d="M 256.71 605.6 L 263.21 599.1 L 269.71 605.6 L 263.21 612.1 Z" fill="#000000" stroke="#000000" stroke-miterlimit="10" pointer-events="all"/><path d="M 548.12 377 L 561 377 Q 571 377 571 367 L 571 112 Q 571 102 581 102 L 607 102" fill="none" stroke="#000000" stroke-miterlimit="10" pointer-events="stroke"/><path d="M 536.12 377 L 548.12 371 L 548.12 383 Z" fill="none" stroke="#000000" stroke-miterlimit="10" pointer-events="all"/><path d="M 548.12 377.4 L 561 377.4 Q 571 377.4 571 367.4 L 571 249 Q 571 239 581 239 L 607 239" fill="none" stroke="#000000" stroke-miterlimit="10" pointer-events="stroke"/><path d="M 536.12 377.4 L 548.12 371.4 L 548.12 383.4 Z" fill="none" stroke="#000000" stroke-miterlimit="10" pointer-events="all"/><path d="M 548.12 377.4 L 561 377.4 Q 571 377.4 571 367.4 L 571 358.7 Q 571 350 581 350 L 607 350" fill="none" stroke="#000000" stroke-miterlimit="10" pointer-events="stroke"/><path d="M 536.12 377.4 L 548.12 371.4 L 548.12 383.4 Z" fill="none" stroke="#000000" stroke-miterlimit="10" pointer-events="all"/><path d="M 548.12 377.4 L 561 377.4 Q 571 377.4 571 387.4 L 571 562 Q 571 572 581 572 L 607 572" fill="none" stroke="#000000" stroke-miterlimit="10" pointer-events="stroke"/><path d="M 536.12 377.4 L 548.12 371.4 L 548.12 383.4 Z" fill="none" stroke="#000000" stroke-miterlimit="10" pointer-events="all"/><path d="M 548.12 377.4 L 561 377.4 Q 571 377.4 571 387.4 L 571 673 Q 571 683 581 683 L 607 683" fill="none" stroke="#000000" stroke-miterlimit="10" pointer-events="stroke"/><path d="M 536.12 377.4 L 548.12 371.4 L 548.12 383.4 Z" fill="none" stroke="#000000" stroke-miterlimit="10" pointer-events="all"/><path d="M 593.29 767 L 493 767 Q 483 767 483 757 L 483 422" fill="none" stroke="#000000" stroke-miterlimit="10" pointer-events="stroke"/><path d="M 606.29 767 L 599.79 773.5 L 593.29 767 L 599.79 760.5 Z" fill="none" stroke="#000000" stroke-miterlimit="10" pointer-events="all"/><path d="M 548.12 377.4 L 561 377.4 Q 571 377.4 571 387.4 L 571 451 Q 571 461 581 461 L 607 461" fill="none" stroke="#000000" stroke-miterlimit="10" pointer-events="stroke"/><path d="M 536.12 377.4 L 548.12 371.4 L 548.12 383.4 Z" fill="none" stroke="#000000" stroke-miterlimit="10" pointer-events="all"/><path d="M 548.12 377.4 L 561 377.4 Q 571 377.4 571 387.4 L 571 784 Q 571 794 581 794 L 607 794" fill="none" stroke="#000000" stroke-miterlimit="10" pointer-events="stroke"/><path d="M 536.12 377.4 L 548.12 371.4 L 548.12 383.4 Z" fill="none" stroke="#000000" stroke-miterlimit="10" pointer-events="all"/><path d="M 378 152.12 L 378 261 Q 378 271 368 271 L 161 271 Q 151 271 151 281 L 151 333" fill="none" stroke="#000000" stroke-miterlimit="10" pointer-events="stroke"/><path d="M 378 140.12 L 384 152.12 L 372 152.12 Z" fill="none" stroke="#000000" stroke-miterlimit="10" pointer-events="all"/><path d="M 430 152.12 L 430 294 Q 430 304 420 304 L 301 304 Q 291 304 291 314 L 291 474 Q 291 484 281 484 L 214 484 Q 204 484 204 494 L 204 543" fill="none" stroke="#000000" stroke-miterlimit="10" pointer-events="stroke"/><path d="M 430 140.12 L 436 152.12 L 424 152.12 Z" fill="none" stroke="#000000" stroke-miterlimit="10" pointer-events="all"/><path d="M 325 94 L 258.24 94" fill="none" stroke="#000000" stroke-miterlimit="10" stroke-dasharray="5" pointer-events="stroke"/><path d="M 269.12 88 L 257.12 94 L 269.12 100" fill="none" stroke="#000000" stroke-miterlimit="10" pointer-events="all"/><path d="M 483 152.12 L 483 285 Q 483 295 483 305 L 483 333" fill="none" stroke="#000000" stroke-miterlimit="10" pointer-events="stroke"/><path d="M 483 140.12 L 489 152.12 L 477 152.12 Z" fill="none" stroke="#000000" stroke-miterlimit="10" pointer-events="all"/></g></svg>