<?xml version="1.0" encoding="us-ascii" standalone="no"?><svg xmlns="http://www.w3.org/2000/svg" xmlns:xlink="http://www.w3.org/1999/xlink" contentStyleType="text/css" height="635px" preserveAspectRatio="none" style="width:675px;height:635px;background:#FFFFFF;" version="1.1" viewBox="0 0 675 635" width="675px" zoomAndPan="magnify"><defs><filter height="300%" id="f1vj2y0ovmhlwz" width="300%" x="-1" y="-1"><feGaussianBlur result="blurOut" stdDeviation="2.0"/><feColorMatrix in="blurOut" result="blurOut2" type="matrix" values="0 0 0 0 0 0 0 0 0 0 0 0 0 0 0 0 0 0 .4 0"/><feOffset dx="4.0" dy="4.0" in="blurOut2" result="blurOut3"/><feBlend in="SourceGraphic" in2="blurOut3" mode="normal"/></filter></defs><g><text fill="#000000" font-family="sans-serif" font-size="14" font-weight="bold" lengthAdjust="spacing" textLength="190" x="235.7202" y="22.9951">GeoJSON Class Diagram</text><!--cluster GeoJSON Geometry--><g id="cluster_GeoJSON Geometry"><rect fill="none" filter="url(#f1vj2y0ovmhlwz)" height="115" style="stroke:#A80036;stroke-width:1.0;" width="200" x="385.2244" y="457.7969"/><path d="M548.2244,457.7969 L548.2244,467.0938 L538.2244,477.0938 L385.2244,477.0938 " fill="none" style="stroke:#A80036;stroke-width:1.0;"/><text fill="#000000" font-family="sans-serif" font-size="14" font-weight="bold" lengthAdjust="spacing" textLength="153" x="388.2244" y="471.792">GeoJSON Geometry</text></g><!--class GeoJSONGeometry--><g id="elem_GeoJSONGeometry"><rect codeLine="41" fill="#FFDAB9" filter="url(#f1vj2y0ovmhlwz)" height="64.2969" id="GeoJSONGeometry" style="stroke:#A80036;stroke-width:1.0;" width="168" x="401.2244" y="492.7969"/><ellipse cx="416.2244" cy="508.7969" fill="#ADD1B2" rx="11" ry="11" style="stroke:#A80036;stroke-width:1.0;"/><path d="M418.5682,504.4688 C417.6307,504.0313 417.0369,503.8906 416.1619,503.8906 C413.5369,503.8906 411.5369,505.9688 411.5369,508.6875 L411.5369,509.8125 C411.5369,512.3906 413.6463,514.2813 416.5369,514.2813 C417.7557,514.2813 418.9119,513.9844 419.6619,513.4375 C420.24,513.0313 420.5682,512.5781 420.5682,512.1875 C420.5682,511.7344 420.1775,511.3438 419.7088,511.3438 C419.49,511.3438 419.2869,511.4219 419.0994,511.6094 C418.6463,512.0938 418.6463,512.0938 418.4588,512.1875 C418.0369,512.4531 417.3494,512.5781 416.5838,512.5781 C414.5369,512.5781 413.24,511.4844 413.24,509.7813 L413.24,508.6875 C413.24,506.9063 414.49,505.5938 416.2244,505.5938 C416.8025,505.5938 417.4119,505.75 417.8807,506 C418.365,506.2813 418.5369,506.5 418.6307,506.9063 C418.6932,507.3125 418.7244,507.4375 418.865,507.5625 C419.0057,507.7031 419.24,507.8125 419.4588,507.8125 C419.7244,507.8125 419.99,507.6719 420.1619,507.4531 C420.2713,507.2969 420.3025,507.1094 420.3025,506.6875 L420.3025,505.2656 C420.3025,504.8281 420.2869,504.7031 420.1932,504.5469 C420.0369,504.2813 419.7557,504.1406 419.4588,504.1406 C419.1619,504.1406 418.9588,504.2344 418.74,504.5469 L418.5682,504.4688 Z " fill="#000000"/><text fill="#000000" font-family="sans-serif" font-size="14" lengthAdjust="spacing" textLength="136" x="430.2244" y="513.6436">GeoJSONGeometry</text><line style="stroke:#A80036;stroke-width:1.0;" x1="402.2244" x2="568.2244" y1="524.7969" y2="524.7969"/><ellipse cx="412.2244" cy="538.4453" fill="none" rx="3" ry="3" style="stroke:#038048;stroke-width:1.0;"/><text fill="#000000" font-family="sans-serif" font-size="14" lengthAdjust="spacing" textLength="142" x="421.2244" y="541.792">type: GeoJSONType</text><line style="stroke:#A80036;stroke-width:1.0;" x1="402.2244" x2="568.2244" y1="549.0938" y2="549.0938"/></g><!--class GeoJSONType--><g id="elem_GeoJSONType"><rect codeLine="7" fill="#FEFECE" filter="url(#f1vj2y0ovmhlwz)" height="194.6719" id="GeoJSONType" style="stroke:#A80036;stroke-width:1.0;" width="158" x="163.2244" y="427.2969"/><ellipse cx="190.3744" cy="443.2969" fill="#EB937F" rx="11" ry="11" style="stroke:#A80036;stroke-width:1.0;"/><path d="M189.1713,444.1719 L190.6244,444.1719 L190.6244,444.2813 C190.6244,444.6875 190.6557,444.8438 190.7338,445 C190.89,445.25 191.1713,445.4063 191.4682,445.4063 C191.7182,445.4063 191.9838,445.2656 192.14,445.0469 C192.265,444.8906 192.2963,444.7344 192.2963,444.2813 L192.2963,442.3594 C192.2963,442.2031 192.2963,442.1563 192.2807,442 C192.2182,441.5313 191.9057,441.2188 191.4525,441.2188 C191.2025,441.2188 190.9369,441.3594 190.765,441.5781 C190.6557,441.75 190.6244,441.9063 190.6244,442.3594 L190.6244,442.4844 L189.1713,442.4844 L189.1713,440.0781 L193.1557,440.0781 L193.1557,440.9375 C193.1557,441.3438 193.1869,441.5156 193.265,441.6719 C193.4369,441.9219 193.7182,442.0781 193.9994,442.0781 C194.265,442.0781 194.5307,441.9375 194.7025,441.7188 C194.8119,441.5469 194.8432,441.4063 194.8432,440.9375 L194.8432,438.3906 L187.2182,438.3906 C186.7807,438.3906 186.6557,438.4063 186.4994,438.5 C186.2494,438.6563 186.0932,438.9531 186.0932,439.2344 C186.0932,439.5156 186.2338,439.7656 186.4525,439.9375 C186.6088,440.0469 186.7963,440.0781 187.2182,440.0781 L187.4682,440.0781 L187.4682,446.5938 L187.2182,446.5938 C186.8119,446.5938 186.6557,446.6094 186.4994,446.7188 C186.2494,446.8906 186.0932,447.1563 186.0932,447.4531 C186.0932,447.7188 186.2338,447.9688 186.4525,448.125 C186.5932,448.25 186.8275,448.2969 187.2182,448.2969 L195.2182,448.2969 L195.2182,445.7188 C195.2182,445.2813 195.1869,445.1406 195.1088,444.9844 C194.9369,444.7344 194.6557,444.5781 194.3744,444.5781 C194.1088,444.5781 193.8432,444.6875 193.6713,444.9375 C193.5619,445.0938 193.5307,445.2344 193.5307,445.7188 L193.5307,446.5938 L189.1713,446.5938 L189.1713,444.1719 Z " fill="#000000"/><text fill="#000000" font-family="sans-serif" font-size="14" lengthAdjust="spacing" textLength="99" x="207.0744" y="448.1436">GeoJSONType</text><line style="stroke:#A80036;stroke-width:1.0;" x1="164.2244" x2="320.2244" y1="459.2969" y2="459.2969"/><text fill="#000000" font-family="sans-serif" font-size="14" lengthAdjust="spacing" textLength="128" x="169.2244" y="476.292">FeatureCollection</text><text fill="#000000" font-family="sans-serif" font-size="14" lengthAdjust="spacing" textLength="55" x="169.2244" y="492.5889">Feature</text><text fill="#000000" font-family="sans-serif" font-size="14" lengthAdjust="spacing" textLength="38" x="169.2244" y="508.8857">Point</text><text fill="#000000" font-family="sans-serif" font-size="14" lengthAdjust="spacing" textLength="73" x="169.2244" y="525.1826">MultiPoint</text><text fill="#000000" font-family="sans-serif" font-size="14" lengthAdjust="spacing" textLength="74" x="169.2244" y="541.4795">LineString</text><text fill="#000000" font-family="sans-serif" font-size="14" lengthAdjust="spacing" textLength="109" x="169.2244" y="557.7764">MultiLineString</text><text fill="#000000" font-family="sans-serif" font-size="14" lengthAdjust="spacing" textLength="57" x="169.2244" y="574.0732">Polygon</text><text fill="#000000" font-family="sans-serif" font-size="14" lengthAdjust="spacing" textLength="92" x="169.2244" y="590.3701">MultiPolygon</text><text fill="#000000" font-family="sans-serif" font-size="14" lengthAdjust="spacing" textLength="146" x="169.2244" y="606.667">GeometryCollection</text><line style="stroke:#A80036;stroke-width:1.0;" x1="164.2244" x2="320.2244" y1="613.9688" y2="613.9688"/></g><!--class GeoJSON--><g id="elem_GeoJSON"><rect codeLine="19" fill="#C2F0FF" filter="url(#f1vj2y0ovmhlwz)" height="182.375" id="GeoJSON" style="stroke:#A80036;stroke-width:1.0;" width="301" x="190.7244" y="44.2969"/><ellipse cx="305.4744" cy="60.2969" fill="#A9DCDF" rx="11" ry="11" style="stroke:#A80036;stroke-width:1.0;"/><path d="M307.5525,62.1094 L307.9432,63.0938 L307.5525,63.0938 C307.0994,63.0938 306.99,63.1094 306.8338,63.2188 C306.5838,63.375 306.4275,63.6563 306.4275,63.9531 C306.4275,64.2188 306.5682,64.4688 306.7869,64.625 C306.9275,64.75 307.1307,64.7969 307.5525,64.7969 L309.9119,64.7969 C310.2713,64.7969 310.49,64.7656 310.6307,64.6719 C310.8807,64.5313 311.0369,64.2344 311.0369,63.9531 C311.0369,63.6719 310.8963,63.4219 310.6775,63.2656 C310.5057,63.125 310.3494,63.0938 309.8807,63.0938 L306.49,54.8906 L302.8182,54.8906 C302.365,54.8906 302.24,54.9063 302.0838,55 C301.8338,55.1719 301.6775,55.4531 301.6775,55.7344 C301.6775,56.0156 301.8182,56.2656 302.0369,56.4375 C302.2088,56.5469 302.3807,56.5781 302.8182,56.5781 L303.8963,56.5781 L301.2557,63.0938 C300.8338,63.0938 300.6775,63.1094 300.5213,63.2188 C300.2713,63.375 300.115,63.6563 300.115,63.9531 C300.115,64.5156 300.49,64.7969 301.24,64.7969 L303.5057,64.7969 C303.865,64.7969 304.0838,64.7656 304.2088,64.6719 C304.4744,64.5313 304.615,64.2344 304.615,63.9531 C304.615,63.6719 304.49,63.4219 304.2713,63.25 C304.0994,63.125 303.9588,63.0938 303.5057,63.0938 L303.115,63.0938 L303.5057,62.1094 L307.5525,62.1094 Z M306.8494,60.4063 L304.1775,60.4063 L305.5213,57.1406 L306.8494,60.4063 Z " fill="#000000"/><text fill="#000000" font-family="sans-serif" font-size="14" font-style="italic" lengthAdjust="spacing" textLength="63" x="325.9744" y="65.1436">GeoJSON</text><line style="stroke:#A80036;stroke-width:1.0;" x1="191.7244" x2="490.7244" y1="76.2969" y2="76.2969"/><ellipse cx="201.7244" cy="110.2422" fill="none" rx="3" ry="3" style="stroke:#038048;stroke-width:1.0;"/><text fill="#000000" font-family="sans-serif" font-size="14" lengthAdjust="spacing" textLength="142" x="210.7244" y="113.5889">type: GeoJSONType</text><line style="stroke:#A80036;stroke-width:1.0;stroke-dasharray:1.0,2.0;" x1="191.7244" x2="306.7244" y1="92.4453" y2="92.4453"/><text fill="#000000" font-family="sans-serif" font-size="14" lengthAdjust="spacing" textLength="69" x="306.7244" y="96.792">members</text><line style="stroke:#A80036;stroke-width:1.0;stroke-dasharray:1.0,2.0;" x1="375.7244" x2="490.7244" y1="92.4453" y2="92.4453"/><ellipse cx="201.7244" cy="146.8359" fill="#84BE84" rx="3" ry="3" style="stroke:#038048;stroke-width:1.0;"/><text fill="#000000" font-family="sans-serif" font-size="14" lengthAdjust="spacing" textLength="275" x="210.7244" y="150.1826">fromMap(Map&lt;String, dynamic&gt; map)</text><ellipse cx="201.7244" cy="163.1328" fill="#84BE84" rx="3" ry="3" style="stroke:#038048;stroke-width:1.0;"/><text fill="#000000" font-family="sans-serif" font-size="14" lengthAdjust="spacing" textLength="174" x="210.7244" y="166.4795">fromJSON(String source)</text><line style="stroke:#A80036;stroke-width:1.0;stroke-dasharray:1.0,2.0;" x1="191.7244" x2="267.7244" y1="129.0391" y2="129.0391"/><text fill="#000000" font-family="sans-serif" font-size="14" lengthAdjust="spacing" textLength="147" x="267.7244" y="133.3857">factory constructors</text><line style="stroke:#A80036;stroke-width:1.0;stroke-dasharray:1.0,2.0;" x1="414.7244" x2="490.7244" y1="129.0391" y2="129.0391"/><ellipse cx="201.7244" cy="199.7266" fill="#84BE84" rx="3" ry="3" style="stroke:#038048;stroke-width:1.0;"/><text fill="#000000" font-family="sans-serif" font-size="14" lengthAdjust="spacing" textLength="56" x="210.7244" y="203.0732">toMap()</text><ellipse cx="201.7244" cy="216.0234" fill="#84BE84" rx="3" ry="3" style="stroke:#038048;stroke-width:1.0;"/><text fill="#000000" font-family="sans-serif" font-size="14" lengthAdjust="spacing" textLength="60" x="210.7244" y="219.3701">toJSON()</text><line style="stroke:#A80036;stroke-width:1.0;stroke-dasharray:1.0,2.0;" x1="191.7244" x2="280.2244" y1="181.9297" y2="181.9297"/><text fill="#000000" font-family="sans-serif" font-size="14" lengthAdjust="spacing" textLength="122" x="280.2244" y="186.2764">general methods</text><line style="stroke:#A80036;stroke-width:1.0;stroke-dasharray:1.0,2.0;" x1="402.2244" x2="490.7244" y1="181.9297" y2="181.9297"/></g><!--class GeoJSONFeatureCollection--><g id="elem_GeoJSONFeatureCollection"><rect codeLine="30" fill="#FEFECE" filter="url(#f1vj2y0ovmhlwz)" height="80.5938" id="GeoJSONFeatureCollection" style="stroke:#A80036;stroke-width:1.0;" width="261" x="67.7243" y="286.2969"/><ellipse cx="99.8243" cy="302.2969" fill="#ADD1B2" rx="11" ry="11" style="stroke:#A80036;stroke-width:1.0;"/><path d="M102.1681,297.9688 C101.2306,297.5313 100.6368,297.3906 99.7618,297.3906 C97.1368,297.3906 95.1368,299.4688 95.1368,302.1875 L95.1368,303.3125 C95.1368,305.8906 97.2462,307.7813 100.1368,307.7813 C101.3556,307.7813 102.5118,307.4844 103.2618,306.9375 C103.8399,306.5313 104.1681,306.0781 104.1681,305.6875 C104.1681,305.2344 103.7774,304.8438 103.3087,304.8438 C103.0899,304.8438 102.8868,304.9219 102.6993,305.1094 C102.2462,305.5938 102.2462,305.5938 102.0587,305.6875 C101.6368,305.9531 100.9493,306.0781 100.1837,306.0781 C98.1368,306.0781 96.8399,304.9844 96.8399,303.2813 L96.8399,302.1875 C96.8399,300.4063 98.0899,299.0938 99.8243,299.0938 C100.4024,299.0938 101.0118,299.25 101.4806,299.5 C101.9649,299.7813 102.1368,300 102.2306,300.4063 C102.2931,300.8125 102.3243,300.9375 102.4649,301.0625 C102.6056,301.2031 102.8399,301.3125 103.0587,301.3125 C103.3243,301.3125 103.5899,301.1719 103.7618,300.9531 C103.8712,300.7969 103.9024,300.6094 103.9024,300.1875 L103.9024,298.7656 C103.9024,298.3281 103.8868,298.2031 103.7931,298.0469 C103.6368,297.7813 103.3556,297.6406 103.0587,297.6406 C102.7618,297.6406 102.5587,297.7344 102.3399,298.0469 L102.1681,297.9688 Z " fill="#000000"/><text fill="#000000" font-family="sans-serif" font-size="14" lengthAdjust="spacing" textLength="191" x="117.6243" y="307.1436">GeoJSONFeatureCollection</text><line style="stroke:#A80036;stroke-width:1.0;" x1="68.7243" x2="327.7243" y1="318.2969" y2="318.2969"/><ellipse cx="78.7243" cy="331.9453" fill="none" rx="3" ry="3" style="stroke:#038048;stroke-width:1.0;"/><text fill="#000000" font-family="sans-serif" font-size="14" lengthAdjust="spacing" textLength="181" x="87.7243" y="335.292">type = FeatureCollection</text><ellipse cx="78.7243" cy="348.2422" fill="none" rx="3" ry="3" style="stroke:#038048;stroke-width:1.0;"/><text fill="#000000" font-family="sans-serif" font-size="14" lengthAdjust="spacing" textLength="235" x="87.7243" y="351.5889">features: List&lt;GeoJSONFeature&gt;</text><line style="stroke:#A80036;stroke-width:1.0;" x1="68.7243" x2="327.7243" y1="358.8906" y2="358.8906"/></g><!--class GeoJSONFeature--><g id="elem_GeoJSONFeature"><rect codeLine="35" fill="#FEFECE" filter="url(#f1vj2y0ovmhlwz)" height="80.5938" id="GeoJSONFeature" style="stroke:#A80036;stroke-width:1.0;" width="242" x="364.2244" y="286.2969"/><ellipse cx="421.9744" cy="302.2969" fill="#ADD1B2" rx="11" ry="11" style="stroke:#A80036;stroke-width:1.0;"/><path d="M424.3182,297.9688 C423.3807,297.5313 422.7869,297.3906 421.9119,297.3906 C419.2869,297.3906 417.2869,299.4688 417.2869,302.1875 L417.2869,303.3125 C417.2869,305.8906 419.3963,307.7813 422.2869,307.7813 C423.5057,307.7813 424.6619,307.4844 425.4119,306.9375 C425.99,306.5313 426.3182,306.0781 426.3182,305.6875 C426.3182,305.2344 425.9275,304.8438 425.4588,304.8438 C425.24,304.8438 425.0369,304.9219 424.8494,305.1094 C424.3963,305.5938 424.3963,305.5938 424.2088,305.6875 C423.7869,305.9531 423.0994,306.0781 422.3338,306.0781 C420.2869,306.0781 418.99,304.9844 418.99,303.2813 L418.99,302.1875 C418.99,300.4063 420.24,299.0938 421.9744,299.0938 C422.5525,299.0938 423.1619,299.25 423.6307,299.5 C424.115,299.7813 424.2869,300 424.3807,300.4063 C424.4432,300.8125 424.4744,300.9375 424.615,301.0625 C424.7557,301.2031 424.99,301.3125 425.2088,301.3125 C425.4744,301.3125 425.74,301.1719 425.9119,300.9531 C426.0213,300.7969 426.0525,300.6094 426.0525,300.1875 L426.0525,298.7656 C426.0525,298.3281 426.0369,298.2031 425.9432,298.0469 C425.7869,297.7813 425.5057,297.6406 425.2088,297.6406 C424.9119,297.6406 424.7088,297.7344 424.49,298.0469 L424.3182,297.9688 Z " fill="#000000"/><text fill="#000000" font-family="sans-serif" font-size="14" lengthAdjust="spacing" textLength="118" x="442.4744" y="307.1436">GeoJSONFeature</text><line style="stroke:#A80036;stroke-width:1.0;" x1="365.2244" x2="605.2244" y1="318.2969" y2="318.2969"/><ellipse cx="375.2244" cy="331.9453" fill="none" rx="3" ry="3" style="stroke:#038048;stroke-width:1.0;"/><text fill="#000000" font-family="sans-serif" font-size="14" lengthAdjust="spacing" textLength="108" x="384.2244" y="335.292">type = Feature</text><polygon fill="none" points="375.2244,344.2422,371.2244,350.2422,379.2244,350.2422" style="stroke:#1963A0;stroke-width:1.0;"/><text fill="#000000" font-family="sans-serif" font-size="14" lengthAdjust="spacing" textLength="216" x="384.2244" y="351.5889">geometry: GeoJSONGeometry</text><line style="stroke:#A80036;stroke-width:1.0;" x1="365.2244" x2="605.2244" y1="358.8906" y2="358.8906"/></g><!--reverse link GeoJSON to GeoJSONType--><g id="link_GeoJSON_GeoJSONType"><path codeLine="46" d="M178.4884,182.8989 C128.5564,205.6739 79.1871,238.7839 50.2243,286.2969 C6,358.8469 92.377,433.6309 163.1774,479.4239 " fill="none" id="GeoJSON-backto-GeoJSONType" style="stroke:#A80036;stroke-width:1.0;"/><polygon fill="#A80036" points="190.4984,177.6189,183.396,176.3718,179.5131,182.4482,186.6155,183.6953,190.4984,177.6189" style="stroke:#A80036;stroke-width:1.0;"/></g><!--reverse link GeoJSONFeatureCollection to GeoJSONType--><g id="link_GeoJSONFeatureCollection_GeoJSONType"><path codeLine="47" d="M209.9954,380.2319 C213.2474,394.7169 216.8824,410.9099 220.5074,427.0579 " fill="none" id="GeoJSONFeatureCollection-backto-GeoJSONType" style="stroke:#A80036;stroke-width:1.0;"/><polygon fill="#A80036" points="207.1284,367.4609,204.5396,374.1913,209.7566,379.1695,212.3454,372.4392,207.1284,367.4609" style="stroke:#A80036;stroke-width:1.0;"/></g><!--reverse link GeoJSONFeature to GeoJSONType--><g id="link_GeoJSONFeature_GeoJSONType"><path codeLine="48" d="M425.7094,375.7999 C394.3144,401.1229 355.3784,432.5289 321.4604,459.8859 " fill="none" id="GeoJSONFeature-backto-GeoJSONType" style="stroke:#A80036;stroke-width:1.0;"/><polygon fill="#A80036" points="436.0494,367.4609,428.868,368.1143,426.709,374.9946,433.8905,374.3412,436.0494,367.4609" style="stroke:#A80036;stroke-width:1.0;"/></g><!--link GeoJSONType to GeoJSONGeometry--><g id="link_GeoJSONType_GeoJSONGeometry"><path codeLine="49" d="M321.4844,524.7969 C343.6734,524.7969 365.8624,524.7969 388.0514,524.7969 " fill="none" id="GeoJSONType-to-GeoJSONGeometry" style="stroke:#A80036;stroke-width:1.0;"/><polygon fill="#A80036" points="401.1154,524.7969,395.1154,520.7969,389.1154,524.7969,395.1154,528.7969,401.1154,524.7969" style="stroke:#A80036;stroke-width:1.0;"/></g><!--reverse link GeoJSON to GeoJSONFeatureCollection--><g id="link_GeoJSON_GeoJSONFeatureCollection"><path codeLine="51" d="M261.0294,242.5699 C249.3274,258.0769 237.9404,273.1659 228.1484,286.1419 " fill="none" id="GeoJSON-backto-GeoJSONFeatureCollection" style="stroke:#A80036;stroke-width:1.0;"/><polygon fill="none" points="255.6494,238.0779,273.2844,226.3299,266.8244,246.5109,255.6494,238.0779" style="stroke:#A80036;stroke-width:1.0;"/></g><!--reverse link GeoJSON to GeoJSONFeature--><g id="link_GeoJSON_GeoJSONFeature"><path codeLine="52" d="M421.9804,242.5699 C433.7644,258.0769 445.2304,273.1659 455.0904,286.1419 " fill="none" id="GeoJSON-backto-GeoJSONFeature" style="stroke:#A80036;stroke-width:1.0;"/><polygon fill="none" points="416.1674,246.4889,409.6394,226.3299,427.3134,238.0189,416.1674,246.4889" style="stroke:#A80036;stroke-width:1.0;"/></g><!--reverse link GeoJSON to GeoJSONGeometry--><g id="link_GeoJSON_GeoJSONGeometry"><path codeLine="53" d="M510.2564,189.0779 C555.0914,211.6409 598.2114,243.0689 624.2244,286.2969 C668.4404,359.7759 582.3124,446.9769 526.8884,492.5319 " fill="none" id="GeoJSON-backto-GeoJSONGeometry" style="stroke:#A80036;stroke-width:1.0;"/><polygon fill="none" points="507.0644,195.3119,492.0074,180.4029,513.0754,182.6679,507.0644,195.3119" style="stroke:#A80036;stroke-width:1.0;"/></g><!--reverse link GeoJSONFeature to GeoJSONGeometry--><g id="link_GeoJSONFeature_GeoJSONGeometry"><path codeLine="54" d="M485.2244,380.6189 C485.2244,416.4089 485.2244,462.4919 485.2244,492.5709 " fill="none" id="GeoJSONFeature-backto-GeoJSONGeometry" style="stroke:#A80036;stroke-width:1.0;"/><polygon fill="#A80036" points="485.2244,367.4609,481.2244,373.4609,485.2244,379.4609,489.2244,373.4609,485.2244,367.4609" style="stroke:#A80036;stroke-width:1.0;"/></g><!--reverse link GeoJSONFeatureCollection to GeoJSONFeature--><g id="link_GeoJSONFeatureCollection_GeoJSONFeature"><path codeLine="55" d="M342.0044,326.7969 C349.3224,326.7969 356.6404,326.7969 363.9594,326.7969 " fill="none" id="GeoJSONFeatureCollection-backto-GeoJSONFeature" style="stroke:#A80036;stroke-width:1.0;"/><polygon fill="none" points="328.8314,326.7969,334.8314,330.7969,340.8314,326.7969,334.8314,322.7969,328.8314,326.7969" style="stroke:#A80036;stroke-width:1.0;"/></g><!--SRC=[VLBBJiD03BplLrXmQO7smB4AbL0HgAX0fV83s-2aA_OHxJg7YCUtuoJTj866GvMrFHxFs0tloe9t0OKWHHhX0TtZvkKP5bg607TAvbuQ8GBZ2ibFI9qfd4LB6weONnfzBGJQqiJMrwf0-100zoYfzBXmMcDAojb3ZbzhfopnzwdKf6AmKXOtv9NDOwMNMJjTvGtFlYk6FDeW-UferfSGSXl8ovGWRSn4Q-TRcRxFRjVhrN9n-xhaJArsEWM3Pei-y9FZIo0sCZjsrQ8oPdI-uaLOfY_he6l9l3DFiXZnBsbLNy5RPQLHwHoCBCOTgkOSjH08hlGfZblw72rwgLaCxTpRGOohUSVxTzCzhZtshFtPUEEiTG8t9m_2QjficF7s0oLzgldGZ9FCdFfc0-qjkjN5uzHK1QzUvWXdyHYnU0P9Si__BvpF6-hUp0ZQdwv0cUwACiiQvD2flkfvSSp5PD8h3oxiV-1GkHDuCT6OKH_JYKW-3zr_R_4FwcIjM-kmn078aLqtyIhVqU-1Fm00]--></g></svg>