<?xml version="1.0" encoding="us-ascii" standalone="no"?><svg xmlns="http://www.w3.org/2000/svg" xmlns:xlink="http://www.w3.org/1999/xlink" contentStyleType="text/css" height="420px" preserveAspectRatio="none" style="width:934px;height:420px;background:#FFFFFF;" version="1.1" viewBox="0 0 934 420" width="934px" zoomAndPan="magnify"><defs><filter height="300%" id="f17pkil1fscy4" width="300%" x="-1" y="-1"><feGaussianBlur result="blurOut" stdDeviation="2.0"/><feColorMatrix in="blurOut" result="blurOut2" type="matrix" values="0 0 0 0 0 0 0 0 0 0 0 0 0 0 0 0 0 0 .4 0"/><feOffset dx="4.0" dy="4.0" in="blurOut2" result="blurOut3"/><feBlend in="SourceGraphic" in2="blurOut3" mode="normal"/></filter></defs><g><text fill="#000000" font-family="sans-serif" font-size="14" font-weight="bold" lengthAdjust="spacing" textLength="274" x="323" y="22.9951">GeoJSON Geometry Class Diagram</text><!--class GeoJSONGeometry--><g id="elem_GeoJSONGeometry"><rect codeLine="7" fill="#FFDAB9" filter="url(#f17pkil1fscy4)" height="64.2969" id="GeoJSONGeometry" style="stroke:#A80036;stroke-width:1.0;" width="168" x="355.5" y="193.7969"/><ellipse cx="370.5" cy="209.7969" fill="#ADD1B2" rx="11" ry="11" style="stroke:#A80036;stroke-width:1.0;"/><path d="M372.8438,205.4688 C371.9063,205.0313 371.3125,204.8906 370.4375,204.8906 C367.8125,204.8906 365.8125,206.9688 365.8125,209.6875 L365.8125,210.8125 C365.8125,213.3906 367.9219,215.2813 370.8125,215.2813 C372.0313,215.2813 373.1875,214.9844 373.9375,214.4375 C374.5156,214.0313 374.8438,213.5781 374.8438,213.1875 C374.8438,212.7344 374.4531,212.3438 373.9844,212.3438 C373.7656,212.3438 373.5625,212.4219 373.375,212.6094 C372.9219,213.0938 372.9219,213.0938 372.7344,213.1875 C372.3125,213.4531 371.625,213.5781 370.8594,213.5781 C368.8125,213.5781 367.5156,212.4844 367.5156,210.7813 L367.5156,209.6875 C367.5156,207.9063 368.7656,206.5938 370.5,206.5938 C371.0781,206.5938 371.6875,206.75 372.1563,207 C372.6406,207.2813 372.8125,207.5 372.9063,207.9063 C372.9688,208.3125 373,208.4375 373.1406,208.5625 C373.2813,208.7031 373.5156,208.8125 373.7344,208.8125 C374,208.8125 374.2656,208.6719 374.4375,208.4531 C374.5469,208.2969 374.5781,208.1094 374.5781,207.6875 L374.5781,206.2656 C374.5781,205.8281 374.5625,205.7031 374.4688,205.5469 C374.3125,205.2813 374.0313,205.1406 373.7344,205.1406 C373.4375,205.1406 373.2344,205.2344 373.0156,205.5469 L372.8438,205.4688 Z " fill="#000000"/><text fill="#000000" font-family="sans-serif" font-size="14" lengthAdjust="spacing" textLength="136" x="384.5" y="214.6436">GeoJSONGeometry</text><line style="stroke:#A80036;stroke-width:1.0;" x1="356.5" x2="522.5" y1="225.7969" y2="225.7969"/><ellipse cx="366.5" cy="239.4453" fill="none" rx="3" ry="3" style="stroke:#038048;stroke-width:1.0;"/><text fill="#000000" font-family="sans-serif" font-size="14" lengthAdjust="spacing" textLength="142" x="375.5" y="242.792">type: GeoJSONType</text><line style="stroke:#A80036;stroke-width:1.0;" x1="356.5" x2="522.5" y1="250.0938" y2="250.0938"/></g><!--class GeoJSONPoint--><g id="elem_GeoJSONPoint"><rect codeLine="11" fill="#FEFECE" filter="url(#f17pkil1fscy4)" height="80.5938" id="GeoJSONPoint" style="stroke:#A80036;stroke-width:1.0;" width="217" x="626" y="44.2969"/><ellipse cx="679.75" cy="60.2969" fill="#ADD1B2" rx="11" ry="11" style="stroke:#A80036;stroke-width:1.0;"/><path d="M682.0938,55.9688 C681.1563,55.5313 680.5625,55.3906 679.6875,55.3906 C677.0625,55.3906 675.0625,57.4688 675.0625,60.1875 L675.0625,61.3125 C675.0625,63.8906 677.1719,65.7813 680.0625,65.7813 C681.2813,65.7813 682.4375,65.4844 683.1875,64.9375 C683.7656,64.5313 684.0938,64.0781 684.0938,63.6875 C684.0938,63.2344 683.7031,62.8438 683.2344,62.8438 C683.0156,62.8438 682.8125,62.9219 682.625,63.1094 C682.1719,63.5938 682.1719,63.5938 681.9844,63.6875 C681.5625,63.9531 680.875,64.0781 680.1094,64.0781 C678.0625,64.0781 676.7656,62.9844 676.7656,61.2813 L676.7656,60.1875 C676.7656,58.4063 678.0156,57.0938 679.75,57.0938 C680.3281,57.0938 680.9375,57.25 681.4063,57.5 C681.8906,57.7813 682.0625,58 682.1563,58.4063 C682.2188,58.8125 682.25,58.9375 682.3906,59.0625 C682.5313,59.2031 682.7656,59.3125 682.9844,59.3125 C683.25,59.3125 683.5156,59.1719 683.6875,58.9531 C683.7969,58.7969 683.8281,58.6094 683.8281,58.1875 L683.8281,56.7656 C683.8281,56.3281 683.8125,56.2031 683.7188,56.0469 C683.5625,55.7813 683.2813,55.6406 682.9844,55.6406 C682.6875,55.6406 682.4844,55.7344 682.2656,56.0469 L682.0938,55.9688 Z " fill="#000000"/><text fill="#000000" font-family="sans-serif" font-size="14" lengthAdjust="spacing" textLength="101" x="700.25" y="65.1436">GeoJSONPoint</text><line style="stroke:#A80036;stroke-width:1.0;" x1="627" x2="842" y1="76.2969" y2="76.2969"/><ellipse cx="637" cy="89.9453" fill="none" rx="3" ry="3" style="stroke:#038048;stroke-width:1.0;"/><text fill="#000000" font-family="sans-serif" font-size="14" lengthAdjust="spacing" textLength="91" x="646" y="93.292">type = Point</text><ellipse cx="637" cy="106.2422" fill="none" rx="3" ry="3" style="stroke:#038048;stroke-width:1.0;"/><text fill="#000000" font-family="sans-serif" font-size="14" lengthAdjust="spacing" textLength="191" x="646" y="109.5889">coordinates: List&lt;double&gt;</text><line style="stroke:#A80036;stroke-width:1.0;" x1="627" x2="842" y1="116.8906" y2="116.8906"/></g><!--class GeoJSONMultiPoint--><g id="elem_GeoJSONMultiPoint"><rect codeLine="16" fill="#FEFECE" filter="url(#f17pkil1fscy4)" height="80.5938" id="GeoJSONMultiPoint" style="stroke:#A80036;stroke-width:1.0;" width="265" x="7" y="326.2969"/><ellipse cx="67.25" cy="342.2969" fill="#ADD1B2" rx="11" ry="11" style="stroke:#A80036;stroke-width:1.0;"/><path d="M69.5938,337.9688 C68.6563,337.5313 68.0625,337.3906 67.1875,337.3906 C64.5625,337.3906 62.5625,339.4688 62.5625,342.1875 L62.5625,343.3125 C62.5625,345.8906 64.6719,347.7813 67.5625,347.7813 C68.7813,347.7813 69.9375,347.4844 70.6875,346.9375 C71.2656,346.5313 71.5938,346.0781 71.5938,345.6875 C71.5938,345.2344 71.2031,344.8438 70.7344,344.8438 C70.5156,344.8438 70.3125,344.9219 70.125,345.1094 C69.6719,345.5938 69.6719,345.5938 69.4844,345.6875 C69.0625,345.9531 68.375,346.0781 67.6094,346.0781 C65.5625,346.0781 64.2656,344.9844 64.2656,343.2813 L64.2656,342.1875 C64.2656,340.4063 65.5156,339.0938 67.25,339.0938 C67.8281,339.0938 68.4375,339.25 68.9063,339.5 C69.3906,339.7813 69.5625,340 69.6563,340.4063 C69.7188,340.8125 69.75,340.9375 69.8906,341.0625 C70.0313,341.2031 70.2656,341.3125 70.4844,341.3125 C70.75,341.3125 71.0156,341.1719 71.1875,340.9531 C71.2969,340.7969 71.3281,340.6094 71.3281,340.1875 L71.3281,338.7656 C71.3281,338.3281 71.3125,338.2031 71.2188,338.0469 C71.0625,337.7813 70.7813,337.6406 70.4844,337.6406 C70.1875,337.6406 69.9844,337.7344 69.7656,338.0469 L69.5938,337.9688 Z " fill="#000000"/><text fill="#000000" font-family="sans-serif" font-size="14" lengthAdjust="spacing" textLength="136" x="87.75" y="347.1436">GeoJSONMultiPoint</text><line style="stroke:#A80036;stroke-width:1.0;" x1="8" x2="271" y1="358.2969" y2="358.2969"/><ellipse cx="18" cy="371.9453" fill="none" rx="3" ry="3" style="stroke:#038048;stroke-width:1.0;"/><text fill="#000000" font-family="sans-serif" font-size="14" lengthAdjust="spacing" textLength="126" x="27" y="375.292">type = MultiPoint</text><ellipse cx="18" cy="388.2422" fill="none" rx="3" ry="3" style="stroke:#038048;stroke-width:1.0;"/><text fill="#000000" font-family="sans-serif" font-size="14" lengthAdjust="spacing" textLength="239" x="27" y="391.5889">coordinates: List&lt;List&lt;double&gt;&gt;</text><line style="stroke:#A80036;stroke-width:1.0;" x1="8" x2="271" y1="398.8906" y2="398.8906"/></g><!--class GeoJSONLineString--><g id="elem_GeoJSONLineString"><rect codeLine="21" fill="#FEFECE" filter="url(#f17pkil1fscy4)" height="80.5938" id="GeoJSONLineString" style="stroke:#A80036;stroke-width:1.0;" width="265" x="307" y="326.2969"/><ellipse cx="366.75" cy="342.2969" fill="#ADD1B2" rx="11" ry="11" style="stroke:#A80036;stroke-width:1.0;"/><path d="M369.0938,337.9688 C368.1563,337.5313 367.5625,337.3906 366.6875,337.3906 C364.0625,337.3906 362.0625,339.4688 362.0625,342.1875 L362.0625,343.3125 C362.0625,345.8906 364.1719,347.7813 367.0625,347.7813 C368.2813,347.7813 369.4375,347.4844 370.1875,346.9375 C370.7656,346.5313 371.0938,346.0781 371.0938,345.6875 C371.0938,345.2344 370.7031,344.8438 370.2344,344.8438 C370.0156,344.8438 369.8125,344.9219 369.625,345.1094 C369.1719,345.5938 369.1719,345.5938 368.9844,345.6875 C368.5625,345.9531 367.875,346.0781 367.1094,346.0781 C365.0625,346.0781 363.7656,344.9844 363.7656,343.2813 L363.7656,342.1875 C363.7656,340.4063 365.0156,339.0938 366.75,339.0938 C367.3281,339.0938 367.9375,339.25 368.4063,339.5 C368.8906,339.7813 369.0625,340 369.1563,340.4063 C369.2188,340.8125 369.25,340.9375 369.3906,341.0625 C369.5313,341.2031 369.7656,341.3125 369.9844,341.3125 C370.25,341.3125 370.5156,341.1719 370.6875,340.9531 C370.7969,340.7969 370.8281,340.6094 370.8281,340.1875 L370.8281,338.7656 C370.8281,338.3281 370.8125,338.2031 370.7188,338.0469 C370.5625,337.7813 370.2813,337.6406 369.9844,337.6406 C369.6875,337.6406 369.4844,337.7344 369.2656,338.0469 L369.0938,337.9688 Z " fill="#000000"/><text fill="#000000" font-family="sans-serif" font-size="14" lengthAdjust="spacing" textLength="137" x="387.25" y="347.1436">GeoJSONLineString</text><line style="stroke:#A80036;stroke-width:1.0;" x1="308" x2="571" y1="358.2969" y2="358.2969"/><ellipse cx="318" cy="371.9453" fill="none" rx="3" ry="3" style="stroke:#038048;stroke-width:1.0;"/><text fill="#000000" font-family="sans-serif" font-size="14" lengthAdjust="spacing" textLength="127" x="327" y="375.292">type = LineString</text><ellipse cx="318" cy="388.2422" fill="none" rx="3" ry="3" style="stroke:#038048;stroke-width:1.0;"/><text fill="#000000" font-family="sans-serif" font-size="14" lengthAdjust="spacing" textLength="239" x="327" y="391.5889">coordinates: List&lt;List&lt;double&gt;&gt;</text><line style="stroke:#A80036;stroke-width:1.0;" x1="308" x2="571" y1="398.8906" y2="398.8906"/></g><!--class GeoJSONMultiLineString--><g id="elem_GeoJSONMultiLineString"><rect codeLine="26" fill="#FEFECE" filter="url(#f17pkil1fscy4)" height="80.5938" id="GeoJSONMultiLineString" style="stroke:#A80036;stroke-width:1.0;" width="313" x="607" y="326.2969"/><ellipse cx="673.25" cy="342.2969" fill="#ADD1B2" rx="11" ry="11" style="stroke:#A80036;stroke-width:1.0;"/><path d="M675.5938,337.9688 C674.6563,337.5313 674.0625,337.3906 673.1875,337.3906 C670.5625,337.3906 668.5625,339.4688 668.5625,342.1875 L668.5625,343.3125 C668.5625,345.8906 670.6719,347.7813 673.5625,347.7813 C674.7813,347.7813 675.9375,347.4844 676.6875,346.9375 C677.2656,346.5313 677.5938,346.0781 677.5938,345.6875 C677.5938,345.2344 677.2031,344.8438 676.7344,344.8438 C676.5156,344.8438 676.3125,344.9219 676.125,345.1094 C675.6719,345.5938 675.6719,345.5938 675.4844,345.6875 C675.0625,345.9531 674.375,346.0781 673.6094,346.0781 C671.5625,346.0781 670.2656,344.9844 670.2656,343.2813 L670.2656,342.1875 C670.2656,340.4063 671.5156,339.0938 673.25,339.0938 C673.8281,339.0938 674.4375,339.25 674.9063,339.5 C675.3906,339.7813 675.5625,340 675.6563,340.4063 C675.7188,340.8125 675.75,340.9375 675.8906,341.0625 C676.0313,341.2031 676.2656,341.3125 676.4844,341.3125 C676.75,341.3125 677.0156,341.1719 677.1875,340.9531 C677.2969,340.7969 677.3281,340.6094 677.3281,340.1875 L677.3281,338.7656 C677.3281,338.3281 677.3125,338.2031 677.2188,338.0469 C677.0625,337.7813 676.7813,337.6406 676.4844,337.6406 C676.1875,337.6406 675.9844,337.7344 675.7656,338.0469 L675.5938,337.9688 Z " fill="#000000"/><text fill="#000000" font-family="sans-serif" font-size="14" lengthAdjust="spacing" textLength="172" x="693.75" y="347.1436">GeoJSONMultiLineString</text><line style="stroke:#A80036;stroke-width:1.0;" x1="608" x2="919" y1="358.2969" y2="358.2969"/><ellipse cx="618" cy="371.9453" fill="none" rx="3" ry="3" style="stroke:#038048;stroke-width:1.0;"/><text fill="#000000" font-family="sans-serif" font-size="14" lengthAdjust="spacing" textLength="162" x="627" y="375.292">type = MultiLineString</text><ellipse cx="618" cy="388.2422" fill="none" rx="3" ry="3" style="stroke:#038048;stroke-width:1.0;"/><text fill="#000000" font-family="sans-serif" font-size="14" lengthAdjust="spacing" textLength="287" x="627" y="391.5889">coordinates: List&lt;List&lt;List&lt;double&gt;&gt;&gt;</text><line style="stroke:#A80036;stroke-width:1.0;" x1="608" x2="919" y1="398.8906" y2="398.8906"/></g><!--class GeoJSONPolygon--><g id="elem_GeoJSONPolygon"><rect codeLine="31" fill="#FEFECE" filter="url(#f17pkil1fscy4)" height="80.5938" id="GeoJSONPolygon" style="stroke:#A80036;stroke-width:1.0;" width="313" x="7" y="185.2969"/><ellipse cx="99.25" cy="201.2969" fill="#ADD1B2" rx="11" ry="11" style="stroke:#A80036;stroke-width:1.0;"/><path d="M101.5938,196.9688 C100.6563,196.5313 100.0625,196.3906 99.1875,196.3906 C96.5625,196.3906 94.5625,198.4688 94.5625,201.1875 L94.5625,202.3125 C94.5625,204.8906 96.6719,206.7813 99.5625,206.7813 C100.7813,206.7813 101.9375,206.4844 102.6875,205.9375 C103.2656,205.5313 103.5938,205.0781 103.5938,204.6875 C103.5938,204.2344 103.2031,203.8438 102.7344,203.8438 C102.5156,203.8438 102.3125,203.9219 102.125,204.1094 C101.6719,204.5938 101.6719,204.5938 101.4844,204.6875 C101.0625,204.9531 100.375,205.0781 99.6094,205.0781 C97.5625,205.0781 96.2656,203.9844 96.2656,202.2813 L96.2656,201.1875 C96.2656,199.4063 97.5156,198.0938 99.25,198.0938 C99.8281,198.0938 100.4375,198.25 100.9063,198.5 C101.3906,198.7813 101.5625,199 101.6563,199.4063 C101.7188,199.8125 101.75,199.9375 101.8906,200.0625 C102.0313,200.2031 102.2656,200.3125 102.4844,200.3125 C102.75,200.3125 103.0156,200.1719 103.1875,199.9531 C103.2969,199.7969 103.3281,199.6094 103.3281,199.1875 L103.3281,197.7656 C103.3281,197.3281 103.3125,197.2031 103.2188,197.0469 C103.0625,196.7813 102.7813,196.6406 102.4844,196.6406 C102.1875,196.6406 101.9844,196.7344 101.7656,197.0469 L101.5938,196.9688 Z " fill="#000000"/><text fill="#000000" font-family="sans-serif" font-size="14" lengthAdjust="spacing" textLength="120" x="119.75" y="206.1436">GeoJSONPolygon</text><line style="stroke:#A80036;stroke-width:1.0;" x1="8" x2="319" y1="217.2969" y2="217.2969"/><ellipse cx="18" cy="230.9453" fill="none" rx="3" ry="3" style="stroke:#038048;stroke-width:1.0;"/><text fill="#000000" font-family="sans-serif" font-size="14" lengthAdjust="spacing" textLength="110" x="27" y="234.292">type = Polygon</text><ellipse cx="18" cy="247.2422" fill="none" rx="3" ry="3" style="stroke:#038048;stroke-width:1.0;"/><text fill="#000000" font-family="sans-serif" font-size="14" lengthAdjust="spacing" textLength="287" x="27" y="250.5889">coordinates: List&lt;List&lt;List&lt;double&gt;&gt;&gt;</text><line style="stroke:#A80036;stroke-width:1.0;" x1="8" x2="319" y1="257.8906" y2="257.8906"/></g><!--class GeoJSONMultiPolygon--><g id="elem_GeoJSONMultiPolygon"><rect codeLine="36" fill="#FEFECE" filter="url(#f17pkil1fscy4)" height="80.5938" id="GeoJSONMultiPolygon" style="stroke:#A80036;stroke-width:1.0;" width="361" x="559" y="185.2969"/><ellipse cx="657.75" cy="201.2969" fill="#ADD1B2" rx="11" ry="11" style="stroke:#A80036;stroke-width:1.0;"/><path d="M660.0938,196.9688 C659.1563,196.5313 658.5625,196.3906 657.6875,196.3906 C655.0625,196.3906 653.0625,198.4688 653.0625,201.1875 L653.0625,202.3125 C653.0625,204.8906 655.1719,206.7813 658.0625,206.7813 C659.2813,206.7813 660.4375,206.4844 661.1875,205.9375 C661.7656,205.5313 662.0938,205.0781 662.0938,204.6875 C662.0938,204.2344 661.7031,203.8438 661.2344,203.8438 C661.0156,203.8438 660.8125,203.9219 660.625,204.1094 C660.1719,204.5938 660.1719,204.5938 659.9844,204.6875 C659.5625,204.9531 658.875,205.0781 658.1094,205.0781 C656.0625,205.0781 654.7656,203.9844 654.7656,202.2813 L654.7656,201.1875 C654.7656,199.4063 656.0156,198.0938 657.75,198.0938 C658.3281,198.0938 658.9375,198.25 659.4063,198.5 C659.8906,198.7813 660.0625,199 660.1563,199.4063 C660.2188,199.8125 660.25,199.9375 660.3906,200.0625 C660.5313,200.2031 660.7656,200.3125 660.9844,200.3125 C661.25,200.3125 661.5156,200.1719 661.6875,199.9531 C661.7969,199.7969 661.8281,199.6094 661.8281,199.1875 L661.8281,197.7656 C661.8281,197.3281 661.8125,197.2031 661.7188,197.0469 C661.5625,196.7813 661.2813,196.6406 660.9844,196.6406 C660.6875,196.6406 660.4844,196.7344 660.2656,197.0469 L660.0938,196.9688 Z " fill="#000000"/><text fill="#000000" font-family="sans-serif" font-size="14" lengthAdjust="spacing" textLength="155" x="678.25" y="206.1436">GeoJSONMultiPolygon</text><line style="stroke:#A80036;stroke-width:1.0;" x1="560" x2="919" y1="217.2969" y2="217.2969"/><ellipse cx="570" cy="230.9453" fill="none" rx="3" ry="3" style="stroke:#038048;stroke-width:1.0;"/><text fill="#000000" font-family="sans-serif" font-size="14" lengthAdjust="spacing" textLength="145" x="579" y="234.292">type = MultiPolygon</text><ellipse cx="570" cy="247.2422" fill="none" rx="3" ry="3" style="stroke:#038048;stroke-width:1.0;"/><text fill="#000000" font-family="sans-serif" font-size="14" lengthAdjust="spacing" textLength="335" x="579" y="250.5889">coordinates: List&lt;List&lt;List&lt;List&lt;double&gt;&gt;&gt;&gt;</text><line style="stroke:#A80036;stroke-width:1.0;" x1="560" x2="919" y1="257.8906" y2="257.8906"/></g><!--class GeoJSONGeometryCollection--><g id="elem_GeoJSONGeometryCollection"><rect codeLine="41" fill="#FEFECE" filter="url(#f17pkil1fscy4)" height="80.5938" id="GeoJSONGeometryCollection" style="stroke:#A80036;stroke-width:1.0;" width="302" x="288.5" y="44.2969"/><ellipse cx="330.95" cy="60.2969" fill="#ADD1B2" rx="11" ry="11" style="stroke:#A80036;stroke-width:1.0;"/><path d="M333.2938,55.9688 C332.3563,55.5313 331.7625,55.3906 330.8875,55.3906 C328.2625,55.3906 326.2625,57.4688 326.2625,60.1875 L326.2625,61.3125 C326.2625,63.8906 328.3719,65.7813 331.2625,65.7813 C332.4813,65.7813 333.6375,65.4844 334.3875,64.9375 C334.9656,64.5313 335.2938,64.0781 335.2938,63.6875 C335.2938,63.2344 334.9031,62.8438 334.4344,62.8438 C334.2156,62.8438 334.0125,62.9219 333.825,63.1094 C333.3719,63.5938 333.3719,63.5938 333.1844,63.6875 C332.7625,63.9531 332.075,64.0781 331.3094,64.0781 C329.2625,64.0781 327.9656,62.9844 327.9656,61.2813 L327.9656,60.1875 C327.9656,58.4063 329.2156,57.0938 330.95,57.0938 C331.5281,57.0938 332.1375,57.25 332.6063,57.5 C333.0906,57.7813 333.2625,58 333.3563,58.4063 C333.4188,58.8125 333.45,58.9375 333.5906,59.0625 C333.7313,59.2031 333.9656,59.3125 334.1844,59.3125 C334.45,59.3125 334.7156,59.1719 334.8875,58.9531 C334.9969,58.7969 335.0281,58.6094 335.0281,58.1875 L335.0281,56.7656 C335.0281,56.3281 335.0125,56.2031 334.9188,56.0469 C334.7625,55.7813 334.4813,55.6406 334.1844,55.6406 C333.8875,55.6406 333.6844,55.7344 333.4656,56.0469 L333.2938,55.9688 Z " fill="#000000"/><text fill="#000000" font-family="sans-serif" font-size="14" lengthAdjust="spacing" textLength="209" x="351.05" y="65.1436">GeoJSONGeometryCollection</text><line style="stroke:#A80036;stroke-width:1.0;" x1="289.5" x2="589.5" y1="76.2969" y2="76.2969"/><ellipse cx="299.5" cy="89.9453" fill="none" rx="3" ry="3" style="stroke:#038048;stroke-width:1.0;"/><text fill="#000000" font-family="sans-serif" font-size="14" lengthAdjust="spacing" textLength="199" x="308.5" y="93.292">type = GeometryCollection</text><ellipse cx="299.5" cy="106.2422" fill="none" rx="3" ry="3" style="stroke:#038048;stroke-width:1.0;"/><text fill="#000000" font-family="sans-serif" font-size="14" lengthAdjust="spacing" textLength="276" x="308.5" y="109.5889">geometries: List&lt;GeoJSONGeometry&gt;</text><line style="stroke:#A80036;stroke-width:1.0;" x1="289.5" x2="589.5" y1="116.8906" y2="116.8906"/></g><!--link GeoJSONPoint to GeoJSONGeometry--><g id="link_GeoJSONPoint_GeoJSONGeometry"><path codeLine="46" d="M650.36,125.4429 C610.665,144.1459 563.412,166.4119 523.708,185.1189 " fill="none" id="GeoJSONPoint-to-GeoJSONGeometry" style="stroke:#A80036;stroke-width:1.0;"/><polygon fill="none" points="526.549,191.5189,505.473,193.7119,520.581,178.8539,526.549,191.5189" style="stroke:#A80036;stroke-width:1.0;"/></g><!--reverse link GeoJSONGeometry to GeoJSONMultiPoint--><g id="link_GeoJSONGeometry_GeoJSONMultiPoint"><path codeLine="47" d="M354.233,266.3039 C313.695,285.0869 265.353,307.4851 224.81,326.27 " fill="none" id="GeoJSONGeometry-backto-GeoJSONMultiPoint" style="stroke:#A80036;stroke-width:1.0;"/><polygon fill="none" points="351.458,259.8749,372.548,257.8179,357.344,272.5779,351.458,259.8749" style="stroke:#A80036;stroke-width:1.0;"/></g><!--reverse link GeoJSONGeometry to GeoJSONLineString--><g id="link_GeoJSONGeometry_GeoJSONLineString"><path codeLine="48" d="M439.5,278.1289 C439.5,294.0189 439.5,311.2716 439.5,326.2353 " fill="none" id="GeoJSONGeometry-backto-GeoJSONLineString" style="stroke:#A80036;stroke-width:1.0;"/><polygon fill="none" points="432.5,277.9909,439.5,257.9909,446.5,277.9909,432.5,277.9909" style="stroke:#A80036;stroke-width:1.0;"/></g><!--reverse link GeoJSONGeometry to GeoJSONMultiLineString--><g id="link_GeoJSONGeometry_GeoJSONMultiLineString"><path codeLine="49" d="M530.405,265.7959 C574.426,284.6819 627.184,307.3154 671.365,326.27 " fill="none" id="GeoJSONGeometry-backto-GeoJSONMultiLineString" style="stroke:#A80036;stroke-width:1.0;"/><polygon fill="none" points="527.429,272.1369,511.809,257.8179,532.948,259.2709,527.429,272.1369" style="stroke:#A80036;stroke-width:1.0;"/></g><!--link GeoJSONPolygon to GeoJSONGeometry--><g id="link_GeoJSONPolygon_GeoJSONGeometry"><path codeLine="50" d="M320.098,225.7969 C325.017,225.7969 329.936,225.7969 334.855,225.7969 " fill="none" id="GeoJSONPolygon-to-GeoJSONGeometry" style="stroke:#A80036;stroke-width:1.0;"/><polygon fill="none" points="335.079,218.7969,355.079,225.7969,335.079,232.7969,335.079,218.7969" style="stroke:#A80036;stroke-width:1.0;"/></g><!--reverse link GeoJSONGeometry to GeoJSONMultiPolygon--><g id="link_GeoJSONGeometry_GeoJSONMultiPolygon"><path codeLine="51" d="M543.818,225.7969 C548.74,225.7969 553.662,225.7969 558.584,225.7969 " fill="none" id="GeoJSONGeometry-backto-GeoJSONMultiPolygon" style="stroke:#A80036;stroke-width:1.0;"/><polygon fill="none" points="543.582,232.7969,523.582,225.7969,543.582,218.7969,543.582,232.7969" style="stroke:#A80036;stroke-width:1.0;"/></g><!--link GeoJSONGeometryCollection to GeoJSONGeometry--><g id="link_GeoJSONGeometryCollection_GeoJSONGeometry"><path codeLine="52" d="M427.844,125.6289 C426.67,140.6049 426.441,157.8429 427.156,173.7039 " fill="none" id="GeoJSONGeometryCollection-to-GeoJSONGeometry" style="stroke:#A80036;stroke-width:1.0;"/><polygon fill="none" points="434.147,173.3219,428.678,193.7929,420.187,174.3789,434.147,173.3219" style="stroke:#A80036;stroke-width:1.0;"/></g><!--reverse link GeoJSONGeometryCollection to GeoJSONGeometry--><g id="link_GeoJSONGeometryCollection_GeoJSONGeometry"><path codeLine="53" d="M452.655,138.7799 C453.444,157.3589 452.879,177.6099 450.959,193.7929 " fill="none" id="GeoJSONGeometryCollection-backto-GeoJSONGeometry" style="stroke:#A80036;stroke-width:1.0;"/><polygon fill="none" points="451.841,125.6289,448.2192,131.8644,452.5821,137.606,456.2039,131.3704,451.841,125.6289" style="stroke:#A80036;stroke-width:1.0;"/></g><!--SRC=[fP9DJiCm48NtFiL8B54sBAFIJP6GK0j8uGAkEqcjEhPbJnOHS7TIqv_4SHe9LadUF7_FcHb_a1gSySWOIL88psXUYhVNuxD6SYsi5FSUdYIl7AyPyzq1oxjN4AQsHgEcWjhkO5Eh1yP4S9yW5yRTbej3Rf6BlMtA4ZuPm3rGQp4_Up-w3_OT0TwDrDHpmoC4AGZ26BUJcXFw7DRIqs9dcgt2vGYpQHJ91EkgJm3xr35sBJKMvAIkXjYh_YTikDKKEohU2XYaB1EzLMrbTDpT8Fu3U-ffWjslp0OCKyOnvzLQ6QLGa8p3nlLGhNvbUKcCS24etjx5LzRORB2JAKysNhURjjuKPsctlGfBogAvfdnELdlAKfEQ-UT4D-C3HxkPzly0]--></g></svg>