<?xml version="1.0" encoding="UTF-8"?>
<!DOCTYPE svg PUBLIC "-//W3C//DTD SVG 1.1//EN" "http://www.w3.org/Graphics/SVG/1.1/DTD/svg11.dtd">
<svg xmlns="http://www.w3.org/2000/svg" xmlns:xlink="http://www.w3.org/1999/xlink" version="1.1" width="895px" height="827px" viewBox="-0.5 -0.5 895 827" content="" style="background-color: rgb(255, 255, 255);"><defs><style type="text/css">ul { margin-top: 0px; margin-bottom: 10px; }&#xa;ol { margin-top: 0px; margin-bottom: 10px; }&#xa;.h1, .h2, .h3, .h4, .h5, .h6, h1, h2, h3, h4, h5, h6 { margin-bottom: .5rem; font-weight: 500; line-height: 1.2; }&#xa;h1, h2, h3, h4, h5, h6 { margin-top: 0; margin-bottom: .5rem; }&#xa;.h1, h1 { font-size: 2.5rem; }&#xa;h2 { font-size: 1.5em; font-weight: bold; }&#xa;h3 { font-size: 1.17em; font-weight: bold; }&#xa;.h4, h4 { font-size: 1.5rem; }&#xa;.h5, h5 { font-size: 1.25rem; }&#xa;.h6, h6 { font-size: 1rem; }&#xa;p { margin-top: 0; margin-bottom: 1rem; }&#xa;ul { margin-top: 0px; margin-bottom: 10px; }&#xa;ol { margin-top: 0px; margin-bottom: 10px; }&#xa;.h1, .h2, .h3, .h4, .h5, .h6, h1, h2, h3, h4, h5, h6 { margin-bottom: .5rem; font-weight: 500; line-height: 1.2; }&#xa;h1, h2, h3, h4, h5, h6 { margin-top: 0; margin-bottom: .5rem; }&#xa;.h1, h1 { font-size: 2.5rem; }&#xa;h2 { font-size: 1.5em; font-weight: bold; }&#xa;h3 { font-size: 1.17em; font-weight: bold; }&#xa;.h4, h4 { font-size: 1.5rem; }&#xa;.h5, h5 { font-size: 1.25rem; }&#xa;.h6, h6 { font-size: 1rem; }&#xa;p { margin-top: 0; margin-bottom: 1rem; }&#xa;ul { margin-top: 0px; margin-bottom: 10px; }&#xa;ol { margin-top: 0px; margin-bottom: 10px; }&#xa;.h1, .h2, .h3, .h4, .h5, .h6, h1, h2, h3, h4, h5, h6 { margin-bottom: .5rem; font-weight: 500; line-height: 1.2; }&#xa;h1, h2, h3, h4, h5, h6 { margin-top: 0; margin-bottom: .5rem; }&#xa;.h1, h1 { font-size: 2.5rem; }&#xa;h2 { font-size: 1.5em; font-weight: bold; }&#xa;h3 { font-size: 1.17em; font-weight: bold; }&#xa;.h4, h4 { font-size: 1.5rem; }&#xa;.h5, h5 { font-size: 1.25rem; }&#xa;.h6, h6 { font-size: 1rem; }&#xa;p { margin-top: 0; margin-bottom: 1rem; }&#xa;</style><linearGradient x1="0%" y1="0%" x2="100%" y2="0%" id="mx-gradient-edffd7-1-ffffff-1-e-0"><stop offset="0%" style="stop-color:#EDFFD7"/><stop offset="100%" style="stop-color:#ffffff"/></linearGradient></defs><g><rect x="0" y="0" width="178.8" height="20" fill="none" stroke="none" pointer-events="all"/><rect x="0" y="20" width="894" height="806" fill="none" stroke="none" pointer-events="all"/><path d="M 0 20 L 894 20 L 894 826 L 0 826 L 0 0 L 178.8 0 L 178.8 20" fill="none" stroke="#000000" stroke-miterlimit="10" pointer-events="all"/><g fill="#000000" font-family="Helvetica" font-weight="bold" text-anchor="middle" font-size="12px"><text x="446.5" y="32.5">GeoJSON UML Model</text></g><rect x="21" y="353" width="210" height="75" fill="#dfefca" stroke="#000000" pointer-events="all"/><path d="M 21 369.77 L 231 369.77" fill="none" stroke="#000000" stroke-miterlimit="10" pointer-events="all"/><path d="M 21 406.77 L 231 406.77" fill="none" stroke="#000000" stroke-miterlimit="10" pointer-events="all"/><g fill="#000000" font-family="Helvetica" font-weight="bold" text-anchor="middle" font-size="12px"><text x="125.5" y="364.5">GeoJSONFeatureCollection</text></g><rect x="21" y="372.77" width="210" height="16" fill="none" stroke="none" pointer-events="all"/><g fill="#000000" font-family="Helvetica" font-size="12px"><text x="27.5" y="385.27">+type = FeatureCollection</text></g><rect x="21" y="388.77" width="210" height="16" fill="none" stroke="none" pointer-events="all"/><g fill="#000000" font-family="Helvetica" font-size="12px"><text x="27.5" y="401.27">+features: &lt;GeoJSONFeature&gt;[]</text></g><rect x="21" y="406.77" width="210" height="16" fill="none" stroke="none" pointer-events="all"/><rect x="21" y="563.23" width="210" height="90" fill="#dfefca" stroke="#000000" pointer-events="all"/><path d="M 21 580 L 231 580" fill="none" stroke="#000000" stroke-miterlimit="10" pointer-events="all"/><path d="M 21 633 L 231 633" fill="none" stroke="#000000" stroke-miterlimit="10" pointer-events="all"/><g fill="#000000" font-family="Helvetica" font-weight="bold" text-anchor="middle" font-size="12px"><text x="125.5" y="574.73">GeoJSONFeature</text></g><rect x="21" y="585" width="214" height="16" fill="none" stroke="none" pointer-events="all"/><g fill="#000000" font-family="Helvetica" font-size="12px"><text x="27.5" y="597.5">+type = Feature</text></g><rect x="21" y="601" width="214" height="16" fill="none" stroke="none" pointer-events="all"/><g fill="#000000" font-family="Helvetica" font-size="12px"><text x="27.5" y="613.5">+geometry: GeoJSONGeometry</text></g><rect x="21" y="617" width="214" height="16" fill="none" stroke="none" pointer-events="all"/><g fill="#000000" font-family="Helvetica" font-size="12px"><text x="27.5" y="629.5">+properties: Map&lt;String, dynamic&gt;{}</text></g><rect x="21" y="635" width="214" height="16" fill="none" stroke="none" pointer-events="all"/><path d="M 126 441.71 L 126 563" fill="none" stroke="#000000" stroke-miterlimit="10" pointer-events="stroke"/><path d="M 126 428.71 L 132.5 435.21 L 126 441.71 L 119.5 435.21 Z" fill="none" stroke="#000000" stroke-miterlimit="10" pointer-events="all"/><rect x="300" y="353" width="210" height="60" fill="#dfefca" stroke="#000000" pointer-events="all"/><path d="M 300 369.77 L 510 369.77" fill="none" stroke="#000000" stroke-miterlimit="10" pointer-events="all"/><path d="M 300 390.77 L 510 390.77" fill="none" stroke="#000000" stroke-miterlimit="10" pointer-events="all"/><g fill="#000000" font-family="Helvetica" font-weight="bold" font-style="italic" text-anchor="middle" font-size="12px"><text x="404.5" y="364.5">GeoJSONGeometry</text></g><rect x="300" y="374.77" width="214" height="16" fill="none" stroke="none" pointer-events="all"/><g fill="#000000" font-family="Helvetica" font-style="italic" font-size="12px"><text x="306.5" y="387.27">+type: GeoJSONType</text></g><rect x="300" y="392.77" width="214" height="16" fill="none" stroke="none" pointer-events="all"/><path d="M 244.71 608.2 L 343 608.2 Q 353 608.2 353 598.2 L 353 413" fill="none" stroke="#000000" stroke-miterlimit="10" pointer-events="stroke"/><path d="M 231.71 608.2 L 238.21 601.7 L 244.71 608.2 L 238.21 614.7 Z" fill="#000000" stroke="#000000" stroke-miterlimit="10" pointer-events="all"/><rect x="21" y="68" width="210" height="182.77" fill="#ffdc8c" stroke="#ddab38" pointer-events="all"/><path d="M 21 98.77 L 231 98.77" fill="none" stroke="#ddab38" stroke-miterlimit="10" pointer-events="all"/><g fill="#000000" font-family="Helvetica" font-weight="bold" text-anchor="middle" font-size="12px"><text x="125.5" y="79.5">&lt;&lt;enumeration&gt;&gt;</text><text x="125.5" y="93.5">GeoJSONType</text></g><rect x="21" y="101.77" width="210" height="16" fill="none" stroke="none" pointer-events="all"/><g fill="#000000" font-family="Helvetica" font-size="12px"><text x="27.5" y="114.27">FeatureCollection</text></g><rect x="21" y="117.77" width="210" height="16" fill="none" stroke="none" pointer-events="all"/><g fill="#000000" font-family="Helvetica" font-size="12px"><text x="27.5" y="130.27">Feature</text></g><rect x="21" y="133.77" width="210" height="16" fill="none" stroke="none" pointer-events="all"/><g fill="#000000" font-family="Helvetica" font-size="12px"><text x="27.5" y="146.27">Point</text></g><rect x="21" y="149.77" width="210" height="16" fill="none" stroke="none" pointer-events="all"/><g fill="#000000" font-family="Helvetica" font-size="12px"><text x="27.5" y="162.27">MultiPoint</text></g><rect x="21" y="165.77" width="210" height="16" fill="none" stroke="none" pointer-events="all"/><g fill="#000000" font-family="Helvetica" font-size="12px"><text x="27.5" y="178.27">LineString</text></g><rect x="21" y="181.77" width="210" height="16" fill="none" stroke="none" pointer-events="all"/><g fill="#000000" font-family="Helvetica" font-size="12px"><text x="27.5" y="194.27">MultiLineString</text></g><rect x="21" y="197.77" width="210" height="16" fill="none" stroke="none" pointer-events="all"/><g fill="#000000" font-family="Helvetica" font-size="12px"><text x="27.5" y="210.27">Polygon</text></g><rect x="21" y="213.77" width="210" height="16" fill="none" stroke="none" pointer-events="all"/><g fill="#000000" font-family="Helvetica" font-size="12px"><text x="27.5" y="226.27">MultiPolygon</text></g><rect x="21" y="229.77" width="210" height="16" fill="none" stroke="none" pointer-events="all"/><g fill="#000000" font-family="Helvetica" font-size="12px"><text x="27.5" y="242.27">GeometryCollection</text></g><rect x="300" y="70" width="210" height="88.77" fill="#98e1f9" stroke="#388aa6" pointer-events="all"/><path d="M 300 86.77 L 510 86.77" fill="none" stroke="#388aa6" stroke-miterlimit="10" pointer-events="all"/><path d="M 300 107.77 L 510 107.77" fill="none" stroke="#388aa6" stroke-miterlimit="10" pointer-events="all"/><g fill="#000000" font-family="Helvetica" font-weight="bold" font-style="italic" text-anchor="middle" font-size="12px"><text x="404.5" y="81.5">GeoJSON</text></g><rect x="300" y="89.77" width="210" height="16" fill="none" stroke="none" pointer-events="all"/><g fill="#000000" font-family="Helvetica" font-style="italic" font-size="12px"><text x="306.5" y="102.27">+type: GeoJSONType</text></g><rect x="300" y="107.77" width="210" height="16" fill="none" stroke="none" pointer-events="all"/><g fill="#000000" font-family="Helvetica" font-style="italic" font-size="12px"><text x="306.5" y="120.27">fromMap(Map data)</text></g><rect x="300" y="123.77" width="210" height="16" fill="none" stroke="none" pointer-events="all"/><g fill="#000000" font-family="Helvetica" font-style="italic" font-size="12px"><text x="306.5" y="136.27">fromJSON(String data)</text></g><rect x="300" y="139.77" width="210" height="16" fill="none" stroke="none" pointer-events="all"/><g fill="#000000" font-family="Helvetica" font-style="italic" font-size="12px"><text x="306.5" y="152.27">Map&lt;String, dynamic&gt; toMap()</text></g><path d="M 353 172.12 L 353 281 Q 353 291 343 291 L 136 291 Q 126 291 126 301 L 126 353" fill="none" stroke="#000000" stroke-miterlimit="10" pointer-events="stroke"/><path d="M 353 160.12 L 359 172.12 L 347 172.12 Z" fill="none" stroke="#000000" stroke-miterlimit="10" pointer-events="all"/><path d="M 405 172.12 L 405 314 Q 405 324 395 324 L 276 324 Q 266 324 266 334 L 266 494 Q 266 504 256 504 L 189 504 Q 179 504 179 514 L 179 563" fill="none" stroke="#000000" stroke-miterlimit="10" pointer-events="stroke"/><path d="M 405 160.12 L 411 172.12 L 399 172.12 Z" fill="none" stroke="#000000" stroke-miterlimit="10" pointer-events="all"/><path d="M 300 114 L 233.24 114" fill="none" stroke="#000000" stroke-miterlimit="10" stroke-dasharray="5" pointer-events="stroke"/><path d="M 244.12 108 L 232.12 114 L 244.12 120" fill="none" stroke="#000000" stroke-miterlimit="10" pointer-events="all"/><path d="M 458 172.12 L 458 305 Q 458 315 458 325 L 458 353" fill="none" stroke="#000000" stroke-miterlimit="10" pointer-events="stroke"/><path d="M 458 160.12 L 464 172.12 L 452 172.12 Z" fill="none" stroke="#000000" stroke-miterlimit="10" pointer-events="all"/><rect x="621" y="70" width="240" height="72.77" fill="url(#mx-gradient-edffd7-1-ffffff-1-e-0)" stroke="#000000" pointer-events="all"/><path d="M 621 86.77 L 861 86.77" fill="none" stroke="#000000" stroke-miterlimit="10" pointer-events="all"/><path d="M 621 123.77 L 861 123.77" fill="none" stroke="#000000" stroke-miterlimit="10" pointer-events="all"/><g fill="#000000" font-family="Helvetica" font-weight="bold" text-anchor="middle" font-size="12px"><text x="740.5" y="81.5">GeoJSONPoint</text></g><rect x="621" y="91.77" width="244" height="16" fill="none" stroke="none" pointer-events="all"/><g fill="#000000" font-family="Helvetica" font-size="12px"><text x="627.5" y="104.27">+type = Point</text></g><rect x="621" y="107.77" width="244" height="16" fill="none" stroke="none" pointer-events="all"/><g fill="#000000" font-family="Helvetica" font-size="12px"><text x="627.5" y="120.27">+coordinates: &lt;double&gt;[]</text></g><rect x="621" y="125.77" width="244" height="16" fill="none" stroke="none" pointer-events="all"/><rect x="621" y="180.33" width="240" height="72.77" fill="url(#mx-gradient-edffd7-1-ffffff-1-e-0)" stroke="#000000" pointer-events="all"/><path d="M 621 197.09 L 861 197.09" fill="none" stroke="#000000" stroke-miterlimit="10" pointer-events="all"/><path d="M 621 234.09 L 861 234.09" fill="none" stroke="#000000" stroke-miterlimit="10" pointer-events="all"/><g fill="#000000" font-family="Helvetica" font-weight="bold" text-anchor="middle" font-size="12px"><text x="740.5" y="191.83">GeoJSONMultiPoint</text></g><rect x="621" y="202.09" width="244" height="16" fill="none" stroke="none" pointer-events="all"/><g fill="#000000" font-family="Helvetica" font-size="12px"><text x="627.5" y="214.59">+type = MultiPoint</text></g><rect x="621" y="218.09" width="244" height="16" fill="none" stroke="none" pointer-events="all"/><g fill="#000000" font-family="Helvetica" font-size="12px"><text x="627.5" y="230.59">+coordinates: &lt;List&lt;double&gt;&gt;[]</text></g><rect x="621" y="236.09" width="244" height="16" fill="none" stroke="none" pointer-events="all"/><rect x="621" y="290.67" width="240" height="72.77" fill="url(#mx-gradient-edffd7-1-ffffff-1-e-0)" stroke="#000000" pointer-events="all"/><path d="M 621 307.44 L 861 307.44" fill="none" stroke="#000000" stroke-miterlimit="10" pointer-events="all"/><path d="M 621 344.44 L 861 344.44" fill="none" stroke="#000000" stroke-miterlimit="10" pointer-events="all"/><g fill="#000000" font-family="Helvetica" font-weight="bold" text-anchor="middle" font-size="12px"><text x="740.5" y="302.17">GeoJSONLineString</text></g><rect x="621" y="312.44" width="244" height="16" fill="none" stroke="none" pointer-events="all"/><g fill="#000000" font-family="Helvetica" font-size="12px"><text x="627.5" y="324.94">+type = LineString</text></g><rect x="621" y="328.44" width="244" height="16" fill="none" stroke="none" pointer-events="all"/><g fill="#000000" font-family="Helvetica" font-size="12px"><text x="627.5" y="340.94">+coordinates: &lt;List&lt;double&gt;&gt;[]</text></g><rect x="621" y="346.44" width="244" height="16" fill="none" stroke="none" pointer-events="all"/><rect x="621" y="401" width="240" height="72.77" fill="url(#mx-gradient-edffd7-1-ffffff-1-e-0)" stroke="#000000" pointer-events="all"/><path d="M 621 417.77 L 861 417.77" fill="none" stroke="#000000" stroke-miterlimit="10" pointer-events="all"/><path d="M 621 454.77 L 861 454.77" fill="none" stroke="#000000" stroke-miterlimit="10" pointer-events="all"/><g fill="#000000" font-family="Helvetica" font-weight="bold" text-anchor="middle" font-size="12px"><text x="740.5" y="412.5">GeoJSONMultiLineString</text></g><rect x="621" y="422.77" width="244" height="16" fill="none" stroke="none" pointer-events="all"/><g fill="#000000" font-family="Helvetica" font-size="12px"><text x="627.5" y="435.27">+type = MultiLineString</text></g><rect x="621" y="438.77" width="244" height="16" fill="none" stroke="none" pointer-events="all"/><g fill="#000000" font-family="Helvetica" font-size="12px"><text x="627.5" y="451.27">+coordinates: &lt;List&lt;List&lt;double&gt;&gt;&gt;[]</text></g><rect x="621" y="456.77" width="244" height="16" fill="none" stroke="none" pointer-events="all"/><rect x="621" y="511.33" width="240" height="72.77" fill="url(#mx-gradient-edffd7-1-ffffff-1-e-0)" stroke="#000000" pointer-events="all"/><path d="M 621 528.09 L 861 528.09" fill="none" stroke="#000000" stroke-miterlimit="10" pointer-events="all"/><path d="M 621 565.09 L 861 565.09" fill="none" stroke="#000000" stroke-miterlimit="10" pointer-events="all"/><g fill="#000000" font-family="Helvetica" font-weight="bold" text-anchor="middle" font-size="12px"><text x="740.5" y="522.83">GeoJSONPolygon</text></g><rect x="621" y="533.09" width="244" height="16" fill="none" stroke="none" pointer-events="all"/><g fill="#000000" font-family="Helvetica" font-size="12px"><text x="627.5" y="545.59">+type = Polygon</text></g><rect x="621" y="549.09" width="244" height="16" fill="none" stroke="none" pointer-events="all"/><g fill="#000000" font-family="Helvetica" font-size="12px"><text x="627.5" y="561.59">+coordinates: &lt;List&lt;List&lt;double&gt;&gt;&gt;[]</text></g><rect x="621" y="567.09" width="244" height="16" fill="none" stroke="none" pointer-events="all"/><rect x="621" y="621.67" width="240" height="72.77" fill="url(#mx-gradient-edffd7-1-ffffff-1-e-0)" stroke="#000000" pointer-events="all"/><path d="M 621 638.44 L 861 638.44" fill="none" stroke="#000000" stroke-miterlimit="10" pointer-events="all"/><path d="M 621 675.44 L 861 675.44" fill="none" stroke="#000000" stroke-miterlimit="10" pointer-events="all"/><g fill="#000000" font-family="Helvetica" font-weight="bold" text-anchor="middle" font-size="12px"><text x="740.5" y="633.17">GeoJSONMultiPolygon</text></g><rect x="621" y="641.44" width="240" height="16" fill="none" stroke="none" pointer-events="all"/><g fill="#000000" font-family="Helvetica" font-size="12px"><text x="627.5" y="653.94">+type = MultiPolygon</text></g><rect x="621" y="657.44" width="240" height="16" fill="none" stroke="none" pointer-events="all"/><g fill="#000000" font-family="Helvetica" font-size="12px"><text x="627.5" y="669.94">+coordinates: &lt;List&lt;List&lt;List&lt;double&gt;&gt;&gt;&gt;[]</text></g><rect x="621" y="675.44" width="240" height="16" fill="none" stroke="none" pointer-events="all"/><rect x="621" y="732" width="240" height="72.77" fill="url(#mx-gradient-edffd7-1-ffffff-1-e-0)" stroke="#000000" pointer-events="all"/><path d="M 621 748.77 L 861 748.77" fill="none" stroke="#000000" stroke-miterlimit="10" pointer-events="all"/><path d="M 621 785.77 L 861 785.77" fill="none" stroke="#000000" stroke-miterlimit="10" pointer-events="all"/><g fill="#000000" font-family="Helvetica" font-weight="bold" text-anchor="middle" font-size="12px"><text x="740.5" y="743.5">GeoJSONGeometryCollection</text></g><rect x="621" y="751.77" width="240" height="16" fill="none" stroke="none" pointer-events="all"/><g fill="#000000" font-family="Helvetica" font-size="12px"><text x="627.5" y="764.27">+type = GeometryCollection</text></g><rect x="621" y="767.77" width="240" height="16" fill="none" stroke="none" pointer-events="all"/><g fill="#000000" font-family="Helvetica" font-size="12px"><text x="627.5" y="780.27">+geometries: &lt;GeoJSONGeometry&gt;[]</text></g><rect x="621" y="785.77" width="240" height="16" fill="none" stroke="none" pointer-events="all"/><path d="M 523.12 383 L 555.5 383 Q 565.5 383 565.5 373 L 565.5 98 Q 565.5 88 575.5 88 L 621 88" fill="none" stroke="#000000" stroke-miterlimit="10" pointer-events="stroke"/><path d="M 511.12 383 L 523.12 377 L 523.12 389 Z" fill="none" stroke="#000000" stroke-miterlimit="10" pointer-events="all"/><path d="M 523.12 383 L 555.5 383 Q 565.5 383 565.5 373 L 565.5 209 Q 565.5 199 575.5 199 L 621 199" fill="none" stroke="#000000" stroke-miterlimit="10" pointer-events="stroke"/><path d="M 511.12 383 L 523.12 377 L 523.12 389 Z" fill="none" stroke="#000000" stroke-miterlimit="10" pointer-events="all"/><path d="M 523.12 383 L 555.5 383 Q 565.5 383 565.5 373 L 565.5 319 Q 565.5 309 575.5 309 L 621 309" fill="none" stroke="#000000" stroke-miterlimit="10" pointer-events="stroke"/><path d="M 511.12 383 L 523.12 377 L 523.12 389 Z" fill="none" stroke="#000000" stroke-miterlimit="10" pointer-events="all"/><path d="M 523.12 383 L 555.5 383 Q 565.5 383 565.5 393 L 565.5 409 Q 565.5 419 575.5 419 L 621 419" fill="none" stroke="#000000" stroke-miterlimit="10" pointer-events="stroke"/><path d="M 511.12 383 L 523.12 377 L 523.12 389 Z" fill="none" stroke="#000000" stroke-miterlimit="10" pointer-events="all"/><path d="M 523.12 383 L 555.5 383 Q 565.5 383 565.5 393 L 565.5 520 Q 565.5 530 575.5 530 L 621 530" fill="none" stroke="#000000" stroke-miterlimit="10" pointer-events="stroke"/><path d="M 511.12 383 L 523.12 377 L 523.12 389 Z" fill="none" stroke="#000000" stroke-miterlimit="10" pointer-events="all"/><path d="M 523.12 383 L 555.5 383 Q 565.5 383 565.5 393 L 565.5 630 Q 565.5 640 575.5 640 L 621 640" fill="none" stroke="#000000" stroke-miterlimit="10" pointer-events="stroke"/><path d="M 511.12 383 L 523.12 377 L 523.12 389 Z" fill="none" stroke="#000000" stroke-miterlimit="10" pointer-events="all"/><path d="M 523.12 383 L 555.5 383 Q 565.5 383 565.5 393 L 565.5 740 Q 565.5 750 575.5 750 L 621 750" fill="none" stroke="#000000" stroke-miterlimit="10" pointer-events="stroke"/><path d="M 511.12 383 L 523.12 377 L 523.12 389 Z" fill="none" stroke="#000000" stroke-miterlimit="10" pointer-events="all"/><path d="M 607.29 787 L 468 787 Q 458 787 458 777 L 458 413" fill="none" stroke="#000000" stroke-miterlimit="10" pointer-events="stroke"/><path d="M 620.29 787 L 613.79 793.5 L 607.29 787 L 613.79 780.5 Z" fill="none" stroke="#000000" stroke-miterlimit="10" pointer-events="all"/><path d="M 126 441.71 L 126 563" fill="none" stroke="#000000" stroke-miterlimit="10" pointer-events="stroke"/><path d="M 126 428.71 L 132.5 435.21 L 126 441.71 L 119.5 435.21 Z" fill="none" stroke="#000000" stroke-miterlimit="10" pointer-events="all"/><path d="M 244.71 608.2 L 343 608.2 Q 353 608.2 353 598.2 L 353 413" fill="none" stroke="#000000" stroke-miterlimit="10" pointer-events="stroke"/><path d="M 231.71 608.2 L 238.21 601.7 L 244.71 608.2 L 238.21 614.7 Z" fill="#000000" stroke="#000000" stroke-miterlimit="10" pointer-events="all"/><path d="M 353 172.12 L 353 281 Q 353 291 343 291 L 136 291 Q 126 291 126 301 L 126 353" fill="none" stroke="#000000" stroke-miterlimit="10" pointer-events="stroke"/><path d="M 353 160.12 L 359 172.12 L 347 172.12 Z" fill="none" stroke="#000000" stroke-miterlimit="10" pointer-events="all"/><path d="M 405 172.12 L 405 314 Q 405 324 395 324 L 276 324 Q 266 324 266 334 L 266 494 Q 266 504 256 504 L 189 504 Q 179 504 179 514 L 179 563" fill="none" stroke="#000000" stroke-miterlimit="10" pointer-events="stroke"/><path d="M 405 160.12 L 411 172.12 L 399 172.12 Z" fill="none" stroke="#000000" stroke-miterlimit="10" pointer-events="all"/><path d="M 300 114 L 233.24 114" fill="none" stroke="#000000" stroke-miterlimit="10" stroke-dasharray="5" pointer-events="stroke"/><path d="M 244.12 108 L 232.12 114 L 244.12 120" fill="none" stroke="#000000" stroke-miterlimit="10" pointer-events="all"/><path d="M 458 172.12 L 458 305 Q 458 315 458 325 L 458 353" fill="none" stroke="#000000" stroke-miterlimit="10" pointer-events="stroke"/><path d="M 458 160.12 L 464 172.12 L 452 172.12 Z" fill="none" stroke="#000000" stroke-miterlimit="10" pointer-events="all"/><path d="M 523.12 383 L 555.5 383 Q 565.5 383 565.5 373 L 565.5 98 Q 565.5 88 575.5 88 L 621 88" fill="none" stroke="#000000" stroke-miterlimit="10" pointer-events="stroke"/><path d="M 511.12 383 L 523.12 377 L 523.12 389 Z" fill="none" stroke="#000000" stroke-miterlimit="10" pointer-events="all"/><path d="M 523.12 383 L 555.5 383 Q 565.5 383 565.5 373 L 565.5 209 Q 565.5 199 575.5 199 L 621 199" fill="none" stroke="#000000" stroke-miterlimit="10" pointer-events="stroke"/><path d="M 511.12 383 L 523.12 377 L 523.12 389 Z" fill="none" stroke="#000000" stroke-miterlimit="10" pointer-events="all"/><path d="M 523.12 383 L 555.5 383 Q 565.5 383 565.5 373 L 565.5 319 Q 565.5 309 575.5 309 L 621 309" fill="none" stroke="#000000" stroke-miterlimit="10" pointer-events="stroke"/><path d="M 511.12 383 L 523.12 377 L 523.12 389 Z" fill="none" stroke="#000000" stroke-miterlimit="10" pointer-events="all"/><path d="M 523.12 383 L 555.5 383 Q 565.5 383 565.5 393 L 565.5 409 Q 565.5 419 575.5 419 L 621 419" fill="none" stroke="#000000" stroke-miterlimit="10" pointer-events="stroke"/><path d="M 511.12 383 L 523.12 377 L 523.12 389 Z" fill="none" stroke="#000000" stroke-miterlimit="10" pointer-events="all"/><path d="M 523.12 383 L 555.5 383 Q 565.5 383 565.5 393 L 565.5 520 Q 565.5 530 575.5 530 L 621 530" fill="none" stroke="#000000" stroke-miterlimit="10" pointer-events="stroke"/><path d="M 511.12 383 L 523.12 377 L 523.12 389 Z" fill="none" stroke="#000000" stroke-miterlimit="10" pointer-events="all"/><path d="M 523.12 383 L 555.5 383 Q 565.5 383 565.5 393 L 565.5 630 Q 565.5 640 575.5 640 L 621 640" fill="none" stroke="#000000" stroke-miterlimit="10" pointer-events="stroke"/><path d="M 511.12 383 L 523.12 377 L 523.12 389 Z" fill="none" stroke="#000000" stroke-miterlimit="10" pointer-events="all"/><path d="M 523.12 383 L 555.5 383 Q 565.5 383 565.5 393 L 565.5 740 Q 565.5 750 575.5 750 L 621 750" fill="none" stroke="#000000" stroke-miterlimit="10" pointer-events="stroke"/><path d="M 511.12 383 L 523.12 377 L 523.12 389 Z" fill="none" stroke="#000000" stroke-miterlimit="10" pointer-events="all"/><path d="M 607.29 787 L 468 787 Q 458 787 458 777 L 458 413" fill="none" stroke="#000000" stroke-miterlimit="10" pointer-events="stroke"/><path d="M 620.29 787 L 613.79 793.5 L 607.29 787 L 613.79 780.5 Z" fill="none" stroke="#000000" stroke-miterlimit="10" pointer-events="all"/></g></svg>